<svg xmlns="http://www.w3.org/2000/svg" viewBox="186.938 16.598 344.055 337.948"><path fill="#f7ab1e" d="m366.534 18.47 2.063.937v2l2.414.277c4.566.92 8.656 2.535 12.96 4.285l2.651 1.07c9.108 3.734 18.19 7.835 26.604 12.973 2.4 1.412 4.78 2.383 7.37 3.395 1.577.806 3.14 1.642 4.688 2.5l2.844 1.57 3.469 1.93 4.718 2.617q6.644 3.688 13.282 7.383v2c.715.26 1.43.52 2.168.79 22.67 9.692 50.345 33.563 63.832 54.21l1.953 2.848c4.657 7.098 7.59 13.755 10.039 21.84.864 3.17.864 3.17 2.054 5.407 1.39 4.23 1.24 8.268 1.228 12.693l.016 2.973c.014 3.241.013 6.482.01 9.723l.013 6.775q.012 7.101.002 14.203c-.005 6.054.011 12.107.035 18.16.014 4.666.015 9.33.012 13.996q0 3.346.016 6.693c.012 3.128.006 6.255-.006 9.383l.023 2.769c-.049 6.033-1.209 10.932-3.395 16.537l-.914 2.777-.711 2.16-.727 2.215c-.648 1.848-.648 1.848-1.648 3.848h-2l-.754 2.645c-4.92 13.245-18.372 23.803-28.225 33.375a224 224 0 0 0-4.908 4.98c-2.113 2-2.113 2-5.113 3-1.802-18.092-1.802-18.092 2.097-24.387 2.367-2.227 4.794-4.266 7.354-6.265 2.815-2.45 4.958-5.426 7.174-8.41l1.288-1.702c1.519-2.024 2.953-3.968 4.087-6.236h2l.25-1.938c.844-3.446 2.188-6.393 3.715-9.585 2.424-5.802 3.33-11.191 3.293-17.44l.011-2.315c.009-2.506.003-5.012-.004-7.519l.006-5.272q.004-5.517-.01-11.035a2823 2823 0 0 1 .007-14.063c.007-3.63.004-7.258 0-10.887q-.002-2.59.004-5.181c.034-15.931-1.608-30.663-9.343-44.949-.93-1.816-.93-1.816-1.824-4.18-3.91-9.328-10.72-16.906-18.105-23.636l-1.856-1.723c-9.753-8.796-20.437-16.695-31.144-24.277l-1.639-1.166q-2.581-1.83-5.174-3.647l-3.144-2.207c-3.018-2.05-3.018-2.05-6.368-3.617-2.675-1.363-2.675-1.363-3.675-3.363a151 151 0 0 0-7.063-3.625l-4.375-2.148-2.281-1.113a1529 1529 0 0 1-10.844-5.364l-1.943-.96c-3.129-1.555-6.192-3.17-9.213-4.927-2.435-1.383-4.597-2.513-7.219-3.426l-2.043-.726-2.02-.711q-1.875-.715-3.75-1.438c-4.484-1.694-9.046-3.141-13.613-4.597-2.636-.965-2.636-.965-5.636-2.965-6.814 0-12.42 2.147-18.595 4.828-3.802 1.634-7.296 2.667-11.405 3.172l-1 3c-1.971 1.024-1.971 1.024-4.567 1.945l-2.888 1.062-3.108 1.118c-12.846 4.817-24.285 10.825-35.582 18.625-1.646 1.109-3.372 2.096-5.105 3.062-5.862 3.27-11.278 7.315-16.75 11.188l-3.004 2.117c-5.077 3.63-9.869 7.378-14.438 11.633-1.558 1.25-1.558 1.25-3.558 1.25v2h-2l-1 3c-1.602 1.324-1.602 1.324-3.625 2.687-16.976 12.316-26.495 33.318-29.901 53.489-1.736 14.007-1.269 28.329-1.281 42.42-.01 4.68-.047 9.36-.082 14.04-.064 9.122-.098 18.243-.111 27.364-1.727.136-3.457.232-5.188.312l-2.918.176c-4.133-.697-5.459-2.112-7.894-5.488-.49-3.048-.676-5.533-.631-8.575l-.022-2.585c-.017-2.818.002-5.635.024-8.453q-.001-2.96-.008-5.917-.002-6.21.04-12.42c.034-5.264.028-10.527.01-15.791-.012-4.08-.002-8.16.013-12.24q.007-2.906-.002-5.813c-.049-23.875 5.936-46.022 22.994-63.714l2.582-2.492 2.761-2.832c6.081-6.216 12.276-11.93 19.239-17.168l3.008-2.277c2.99-2.252 5.99-4.489 8.992-6.723q2.032-1.53 4.062-3.063l1.89-1.41a692 692 0 0 0 4.595-3.46c6.226-4.653 12.567-8.482 19.453-12.067q2.72-1.496 5.437-3c16.524-9 16.524-9 19.563-9v-2q3.843-1.688 7.687-3.375l2.186-.96 2.138-.938 2.08-.914a113 113 0 0 1 4.866-1.915c2.218-.715 2.218-.715 3.043-2.898 1.623-.822 1.623-.822 3.718-1.621l2.329-.897 2.453-.92 2.36-.908a260 260 0 0 1 14.2-4.952c2.201-.737 2.201-.737 5.065-2.452 4.602-2.001 8.232-.844 12.812.812"/><path fill="#05bcf1" d="M344.526 173.848c3.343.902 4.276 2.652 6.07 5.559.935 2.894 1.472 5.821 2 8.812q.495 2.56.997 5.118l.5 2.58c.743 3.672 1.637 7.299 2.566 10.927l.988 3.872.95 3.691a4570 4570 0 0 1 1.75 7l.734 2.937.516 2.063.402-2.152.535-2.786.528-2.777c.535-2.285.535-2.285 1.535-3.285.48-2.767.907-5.526 1.304-8.305l.77-5.144q.605-4.07 1.19-8.144c.378-2.614.77-5.225 1.165-7.837l.342-2.462c1.026-6.66 1.026-6.66 4.229-9.108 5.574-.708 5.574-.708 8 0 3.266 3.5 4.683 6.413 5.781 11.043l.863 3.506.856 3.638c1.796 7.518 3.617 14.733 6.748 21.818.752 1.995.752 1.995.752 4.995l2.807-.21c25.693-1.57 25.693-1.57 33 2.945 4.388 4.3 7.284 9.427 10.002 14.895 2.418 4.813 5.45 9.486 9.19 13.37 3.635 1.335 3.635 1.335 7 0 3.124-1.79 3.124-1.79 5-5 .398-3.05.3-5.945 0-9l-2.374-.875c-2.625-1.125-2.625-1.125-4.625-3.125-.266-2.313-.266-2.313-.25-5l-.016-2.688c.266-2.312.266-2.312 2.266-4.312 2.845-.2 5.591-.28 8.437-.266l2.533-.005q2.653-.002 5.306.01c2.713.011 5.425 0 8.138-.012q2.574 0 5.148.007l2.469-.012c5.739.048 5.739.048 7.969 2.278.55 2.627.357 4.338-.924 6.708-1.362 2.043-2.795 4.012-4.264 5.98l-1.633 2.245a986 986 0 0 1-3.439 4.697 683 683 0 0 0-5.01 6.925c-5.844 8.161-11.774 16.25-17.861 24.232l-1.408 1.858-1.322 1.732c-1.308 1.776-1.308 1.776-2.6 4.572-1.54 2.051-1.54 2.051-4.426 2.723-4.17-.9-5.634-3.068-7.926-6.422l-1.282-1.77a365 365 0 0 1-2.616-3.662c-1.98-2.793-4.043-5.52-6.102-8.256l-2.203-2.957a132 132 0 0 0-5.047-6.23c-1.937-2.375-1.937-2.375-1.937-4.375h-2l-.813-2.938-1.187-3.062-3-1-1.688-2.375c-3.479-3.95-7.703-5.384-12.852-5.86a258 258 0 0 0-10.947-.029c-6.587-.09-6.587-.09-9.206-1.916-2.776-3.126-4.163-6.494-5.12-10.508l-.707-2.824c-.48-2.488-.48-2.488-.48-5.488h-2l.07 2.09c.103 5.338-.17 10.029-1.5 15.187-.94 4.488-1.34 9.048-1.785 13.608-.452 4.31-1.374 7.998-2.785 12.115-.497 3.32-.877 6.64-1.242 9.977-.88 3.51-1.92 4.83-4.758 7.023-3 .562-3 .562-6 0-4.037-3.968-4.997-7.842-6.063-13.188q-.498-2.304-1.004-4.609l-.48-2.22c-.537-2.349-1.212-4.629-1.953-6.92-1.694-5.375-2.823-10.863-4.011-16.366a223 223 0 0 0-3.974-15.63c-.515-2.067-.515-2.067-.515-5.067h-2l-.25 3.187c-1.933 15.194-1.933 15.194-6.54 19.477-2.552 1.542-3.858 1.659-6.808 1.566l-2.664-.018-2.8-.025c-9.822.164-14.809 1.851-21.938 8.813-8.072 6.647-13.958 10.732-24.727 10.406-7.264-.901-13-3.004-19.398-6.406-10.737-5.644-20.694-7.822-32.875-7l-1 1 3.183-.105c7.837-.187 14.601-.27 21.817 3.105l1.927.895a592 592 0 0 1 8.96 4.236c6.493 3.145 11.83 5.144 19.175 5.056l3.598-.019c2.9-.146 5.52-.502 8.34-1.168l-1 2c-12.183 4.06-23.873-.028-35-5v-2c-15.59-4.535-28.007-5.212-43.578-.094-3.422 1.094-3.422 1.094-5.422 1.094-1.13-5.023-.78-8.979 0-14l2.351-.41c7.945-1.583 14.315-4.133 21.36-7.969 8.669-4.273 18.177-5.262 27.547-2.746 6.829 2.655 12.177 6.434 17.742 11.125 4.266 2.844 7.994 2.736 13 2 5.028-2.998 7.5-7.053 10.644-11.91 1.632-2.516 2.861-4.38 5.356-6.09 2.994-.604 5.95-.87 9-1v2h13l.789-4.25c1.205-6.017 2.854-11.867 4.586-17.75l.883-3.078c6.131-20.977 6.131-20.977 14.671-21.48"/><path fill="#fdfdf7" d="M464.597 333.407q9.234-.037 18.469-.055 3.14-.008 6.28-.02c3.013-.013 6.026-.018 9.04-.023l2.822-.015c4.582 0 8.881.17 13.389 1.113v5h3v-5c3.312-.313 3.312-.313 7 0 2.594 2.761 2.964 4.618 3.312 8.375-.784 9.097-.784 9.097-3.312 11.625-2.656.098-5.285.13-7.941.12l-2.552.003q-4.265 0-8.531-.01l-6.089.001q-8.293-.001-16.586-.013-8.656-.007-17.313-.008-16.404-.005-32.81-.021-18.67-.015-37.34-.022-38.42-.016-76.838-.05l-1-3h-2v-3l-2.774.07-3.601.055-3.586.07c-3.04-.195-3.04-.195-5.04-2.195-.25-3.5-.25-3.5 0-7 3.643-3.642 9.435-2.71 14.376-2.938 1.15-.08 2.3-.16 3.484-.244 8.49-.4 8.49-.4 11.93 2.678l1.21 2.504 1-5 2.813.125c3.346.146 3.346.146 6.188-2.125 6.436-.883 9.99 1.356 15 5v-3h36v-2l2.25.937c3.544 1.37 6.113 2.063 9.937 2.063h2.813l1 1 1-3c2-.75 2-.75 4-1 1 1 1 1 1.062 3.562l-.062 2.438h4v-6h4l1 5 2-2c3.968-.666 7.984-.798 12-1l2.91-.164 2.652-.086 2.38-.078c2.57.41 3.432 1.354 5.058 3.328l2-2c2.688-.27 5.291-.087 8 0l2 5c1.497-1.497 1.332-2.988 1.562-5.063z"/><path fill="#f6ab21" d="M485.597 142.407v2l-2 1.25c-2.246 1.621-2.246 1.621-2.625 4.437 1.229 6.513 6.265 10.934 10.625 15.688 8.001 8.862 11.46 16.413 11.34 28.297-.69 6.75-3.94 11.316-8.903 15.765-2.335 1.893-4.631 3.457-7.437 4.563l-3-1 3.808-4.492c1.28-1.514 1.28-1.514 2.192-3.508h2l-1-10c-2.913-.235-2.913-.235-4.875 1-2.523 1.187-4.37 1.153-7.125 1l3-6c.555-4.632.636-7.982-1.875-12-1.962-2.038-1.962-2.038-4.125-3l.562 2.875c.061 4.274-2.14 6.323-4.937 9.375l-2.461 2.516c-4.347 4.487-4.58 7.423-4.5 13.425.49 4.096 1.964 6.474 4.336 9.809-5.32-.417-8.205-1.205-12-5-4.938-6.124-6.5-10.851-6.5-18.793.722-4.631 2.95-7.37 5.968-10.855 1.953-2.998 1.999-4.84 1.532-8.352-2.427-1.79-2.427-1.79-5-3v-2c3.858-1.815 6.767-2.094 11-2l-.211-2.816c-.498-11.36-.498-11.36 2.898-15.434 5.038-4.652 12.824-6.994 19.313-3.75"/><path fill="#fdfcf3" d="M348.597 334.407c2.847 1.429 5.425 3.128 8 5v-3h36v-2c4.75 1.875 4.75 1.875 7 3 .625 2.062.625 2.062 1 4l2-3h3c-1.418 4.472-3.113 8.711-5 13h-3v-2h2v-5l-5-1 2 3c-.518 3.517-.518 3.517-2 5-5.53.235-5.53.235-8-1v-8h-2l.062 2.437c-.062 2.563-.062 2.563-1.062 3.563-2.863.073-5.701.092-8.563.062l-2.443-.013q-2.997-.02-5.994-.049v-8h-4v7h-3v-3h-2l-2 10h-37l-1-3h-2v-3l-2.774.07-3.601.055-3.586.07c-3.04-.195-3.04-.195-5.04-2.195-.25-3.5-.25-3.5 0-7 3.643-3.642 9.435-2.71 14.376-2.938 1.15-.08 2.3-.16 3.484-.244 8.49-.4 8.49-.4 11.93 2.678l1.21 2.504 1-5 2.813.125c5.12-.2 7.614-2.765 13.188-2.125"/><path fill="#23bae3" d="M258.597 180.407c4.22 1.822 6.005 3.908 8 8 .293 3.332.293 3.332.187 6.812l-.082 3.52-.105 2.668c2.545-2.257 3.7-4.287 4.937-7.438 1.533-3.564 2.793-6.283 6.063-8.562 3.085-.54 4.53-.241 7.312 1.187 1.688 1.813 1.688 1.813 2.25 4.25-.562 2.563-.562 2.563-2.5 4.625-2.563 1.622-4.845 2.729-7.625 3.875-3.936 1.674-6.246 3.252-8.437 7.063v4c2.756-.498 2.756-.498 5-2 9.064-1.202 9.064-1.202 12.875 1.164 2.208 2.446 3.125 4.29 3.125 7.586-1 2.25-1 2.25-4 4.25-3 .375-3 .375-6 0-1.875-2-1.875-2-3-4l-5 1c.774 6.655 3.138 10.474 8 15-4.362-.51-6.493-1.913-9.688-4.875l-2.324-2.117c-1.988-2.008-1.988-2.008-3.988-5.008a74 74 0 0 0-8.125-.688l-2.285-.103a497 497 0 0 0-5.59-.209l-1-5c2.644-1.322 4.677-1.097 7.625-1.063l3.039.028 2.336.035-2-5-2.188 1c-2.885 1.026-4.785 1.41-7.812 1-2.3-3.45-2.432-4.946-2-9 3.085-2.057 3.912-2.295 7.437-2.313l2.309-.05c2.766.446 4.158 1.553 6.254 3.363-.06-1.793-.149-3.584-.25-5.375l-.14-3.023c-.332-2.755-.332-2.755-2.657-3.954l-1.953-.648-2 2c-3 .25-3 .25-6 0-2-2-2-2-2.438-4.875.438-3.125.438-3.125 2.5-5.5 3.668-2.029 5.797-2.143 9.938-1.625"/><path fill="#03bcf1" d="M290.597 148.407c4.084 1.882 7.72 4.056 10.226 7.863 1.824 5.04 1.584 11.067-.351 16.012-3.116 3.531-6.9 7.81-11.793 8.328-5.903.122-11.07-.346-15.59-4.633-4.016-4.612-4.862-8.379-4.766-14.293.592-4.926 3.726-8.045 7.336-11.152 4.693-3.085 9.53-3.207 14.938-2.125"/><path fill="#abecf5" d="M263.597 228.407c3.97 2.7 7.605 5.605 11 9-4.036-.649-7.427-1.986-11.188-3.563-14.788-5.32-30.754-3.172-44.855 3.387-3.369 1.635-6.674 3.375-9.957 5.176 2.694-.602 4.66-1.324 7.187-2.563 4.471-1.73 8.83-1.737 13.563-1.75l2.258-.015c3.906.05 6.599.437 9.992 2.328l-1.729-.016q-3.854-.029-7.709-.047l-2.72-.025-2.588-.01-2.397-.016c-1.873-.091-1.873-.091-2.857 1.114l3.183-.105c7.837-.187 14.601-.27 21.817 3.105l1.927.895a592 592 0 0 1 8.96 4.236c6.493 3.145 11.83 5.144 19.175 5.056l3.598-.019c2.9-.146 5.52-.502 8.34-1.168l-1 2c-12.183 4.06-23.873-.028-35-5v-2c-15.59-4.535-28.007-5.212-43.578-.094-3.422 1.094-3.422 1.094-5.422 1.094-1.13-5.023-.78-8.979 0-14l2.351-.41c7.945-1.583 14.315-4.133 21.36-7.969 12.038-5.933 24.726-5.177 36.289 1.379"/><path fill="#f9e7b1" d="m187.597 334.407 4 1v3l2-1 1-3h12v2l13-1v2l1.933-.254 2.504-.309 2.496-.316 2.067-.121 1 1c1.347.23 2.703.412 4.062.562l3.938.438q-.463 2.22-.938 4.437l-.527 2.497c-.535 2.066-.535 2.066-1.535 3.066-2.824.127-5.613.185-8.438.187l-2.392.038c-2.058.005-4.116-.103-6.17-.225l-2-2-1 2-3.813.062-2.144.036c-2.043-.098-2.043-.098-5.043-1.098l-1 1a153 153 0 0 1-6.563.062l-3.629-.027-2.808-.035c-1.592-4.873-2.212-8.808-2-14"/><path fill="#fae9b3" d="M392.597 334.407c4.75 1.875 4.75 1.875 7 3 .625 2.062.625 2.062 1 4l2-3h3c-1.418 4.472-3.113 8.711-5 13h-3v-2h2v-5l-5-1 2 3c-.518 3.517-.518 3.517-2 5-5.53.235-5.53.235-8-1v-8h-2l.062 2.437c-.062 2.563-.062 2.563-1.062 3.563-2.863.073-5.701.092-8.563.062l-2.443-.013q-2.997-.02-5.994-.049v-8h-4v7h-3v-3h-2l-.75 2.937-1.25 3.063c-2.125.875-2.125.875-4 1v-2h2l-3-11 6 1v-3h36z"/><path fill="#faefc2" d="m411.597 334.407 3 1v5h4v-6h4l1 5 2-2c3.968-.666 7.984-.798 12-1l2.91-.164 2.652-.086 2.38-.078c2.57.41 3.432 1.354 5.058 3.328l2-2c2.5-.25 2.5-.25 5 0 2 2 2 2 2 6h-6l1 2 5-1-2 4c-4.75.125-4.75.125-7-1v1c-22.156 2.061-22.156 2.061-33 0v-5h-3v5l-4-1q-.04-2.969-.063-5.938l-.035-3.34c.098-2.722.098-2.722 1.098-3.722"/><path fill="#71716f" d="M397.597 299.407c7.625.875 7.625.875 11 2v2l4 2c.485 5.337.485 5.337-1.595 8.179-3.201 2.424-5.153 2.282-9.14 2.212l-3.925-.04-4.09-.101q-2.07-.03-4.137-.055a969 969 0 0 1-10.113-.195v10h-6a731 731 0 0 1-.125-6.875l-.07-3.867c.195-3.258.195-3.258 2.195-5.258h3l.375-2.375c.625-2.625.625-2.625 2.625-4.625 2.937-.438 2.937-.438 6 0a159 159 0 0 1 3 5c2.585.5 2.585.5 5 0 1.968-1.968 1.662-5.348 2-8"/><path fill="#ebba54" d="M200.597 118.407c1 3 1 3-.11 5.453l-1.64 2.797c-5.55 9.765-8.57 18.192-8.477 29.449l-.001 2.87c.001 3.111.017 6.222.032 9.333l.009 6.495q.014 8.524.05 17.05c.02 5.804.029 11.61.039 17.414q.033 17.07.098 34.139h10l.03-2.863q.148-13.395.309-26.79.083-6.885.158-13.77.072-6.653.156-13.305.03-2.53.056-5.06c.248-24.17.248-24.17 5.29-29.212q-.214 2.094-.437 4.187l-.246 2.356c-.316 2.457-.316 2.457-.823 4.616-.623 3.589-.67 7.122-.699 10.752l-.03 2.367q-.045 3.855-.08 7.71l-.064 5.36q-.081 7.04-.153 14.08-.076 7.19-.16 14.379-.162 14.096-.307 28.193c-1.727.136-3.457.232-5.188.312l-2.918.176c-4.133-.697-5.459-2.112-7.894-5.488-.49-3.048-.676-5.533-.631-8.575l-.022-2.585c-.017-2.818.002-5.635.024-8.453q-.001-2.96-.008-5.917-.002-6.21.04-12.42c.034-5.264.028-10.527.01-15.791-.012-4.08-.002-8.16.013-12.24q.007-2.906-.002-5.813c-.03-14.755 1.057-28.754 8.2-42.019l1.79-3.394a95 95 0 0 1 3.586-5.793"/><path fill="#36c0e3" d="M258.597 180.407c4.22 1.822 6.005 3.908 8 8 .293 3.332.293 3.332.187 6.812l-.082 3.52-.105 2.668h-1v-12h-2l.062 3.562c.007 3.912-.42 7.583-1.062 11.438h-3l3 16h-15l-1-5c2.644-1.322 4.677-1.097 7.625-1.063l3.039.028 2.336.035-2-5-2.188 1c-2.885 1.026-4.785 1.41-7.812 1-2.3-3.45-2.432-4.946-2-9 3.085-2.057 3.912-2.295 7.437-2.313l2.309-.05c2.766.446 4.158 1.553 6.254 3.363-.06-1.793-.149-3.584-.25-5.375l-.14-3.023c-.332-2.755-.332-2.755-2.657-3.954l-1.953-.648-2 2c-3 .25-3 .25-6 0-2-2-2-2-2.438-4.875.438-3.125.438-3.125 2.5-5.5 3.668-2.029 5.797-2.143 9.938-1.625"/><path fill="#efc770" d="m471.284 334.094 2.313.313 2 5 2-4h4l1 6h2l1-7h22l1 3h-6v2l6 1v7c-6.625 1.125-6.625 1.125-10 0a99 99 0 0 0-5.188-.063l-2.73.028-2.082.035-1-8-2 8h-4l-1-5h-2l-1 5h-4c-1.193-3.877-2-6.916-2-11l-3 2c-.27 4.194-.342 7.975 1 12h-2c-2.34-3.656-2.375-6.732-2-11 1.973-4.88 1.973-4.88 5.687-5.313"/><path fill="#6d6d6b" d="M440.597 295.407h6v14q4.375-.172 8.75-.375c.825-.03 1.65-.062 2.5-.094l2.422-.117 2.221-.095c2.356-.357 4.041-1.156 6.107-2.319l-5-1v-5c3.275-1.048 4.67-1.138 7.894.215l2.918 1.722 2.957 1.715 2.23 1.348-1 6-11 2v2q-6.468.042-12.937.062l-3.732.026-3.545.01-3.285.016c-2.5-.114-2.5-.114-3.5-1.114a63 63 0 0 1-.098-4.254l.01-2.588.025-2.72.014-2.733q.018-3.353.049-6.705"/><path fill="#70706e" d="M327.597 304.407h5c.054 1.458.092 2.916.125 4.375l.07 2.46c-.195 2.165-.195 2.165-2.195 4.165-2.602.195-2.602.195-5.625.125l-3.04-.055-2.335-.07v5l-1.938.312-2.062.688-1 3c-3.498 1.48-7.276 1.333-11 1-2.365-1.867-3.66-3.32-5-6 .087-1.879.241-3.755.437-5.625l.309-3.04.254-2.335c3.75-1.125 3.75-1.125 6 0v9c2.916.167 2.916.167 6 0l2-2-4-2 1-5 18 1z"/><path fill="#6d6d6b" d="M261.597 296.407c2.375.25 2.375.25 5 1 2.098 2.898 2 4.284 2 8l-2.809.184-3.629.253-3.62.247c-2.828-.007-2.828-.007-3.942 1.316l4 2c-.261 3.826-.514 5.527-3.313 8.25-4.978 3.241-7.717 4.142-13.625 3.277-2.062-.527-2.062-.527-4.125-2.09-1.778-4.622-1.466-8.85.063-13.437l1-2 5 1v9c3.287.8 4.71 1.097 8 0v-2l-4-1c.297-3.468.988-4.985 3.187-7.75 3.106-2.485 4.879-3.075 8.813-3.25l2 1z"/><path fill="#fbecb2" d="M270.597 334.407h3q.04 3.22.062 6.437l.035 3.622c-.097 2.941-.097 2.941-1.097 3.941-4.64.254-9.292.185-13.938.187l-3.982.038-3.795.005-3.504.013c-2.781-.243-2.781-.243-4.781-2.243.25-2.063.25-2.063 1-4l2-1-2-1v-2c2.661-1.33 4.687-1.113 7.664-1.098l3.398.01 3.563.025 3.586.014q4.394.018 8.789.049z"/><path fill="#fcfaed" d="M362.597 340.407h4v8l17-1 1-5h2v8h8c.934-3.01 1.044-3.867 0-7l5 1v5h-2v2h3l2-7c1.075 2.64 1.025 3.91.25 6.687-4.285 4.405-11.459 3.305-17.337 3.386-4.534.036-9.067.015-13.6-.01q-2.384-.009-4.764-.014-5.775-.017-11.55-.049c.876-7.75.876-7.75 2-10h2v3h3z"/><path fill="#747475" d="M272.597 267.407h4v12c-3.823.956-6.603.981-10.465.86q-2.737-.057-5.473-.11l-2.787-.102-2.678-.039-2.453-.063c-2.916.617-3.518 2.051-5.144 4.454-2.262.39-2.262.39-4.688.25l-2.449-.11-1.863-.14c-1.608-3.215-1.058-6.436-1-10h3v6l5-1 1-6h3l1-5h4v8l6-2v2h4v-2h2v2h2v-4h4z"/><path fill="#727270" d="m428.597 299.407 1 9 5 1-1-5h6c.367 7.462.367 7.462-1.192 9.746-2.418 1.677-4.017 1.589-6.933 1.504l-2.696-.047c-2.18-.203-2.18-.203-3.18-1.203a234 234 0 0 0-6.09-.523c-1.91-.477-1.91-.477-3.91-3.477-.562-2.313-.562-2.313 0-5 3.674-4.489 7.022-6.875 13-6"/><path fill="#38badb" d="M259.804 226.239c1.793 1.168 1.793 1.168 2.793 4.168l-2.246-.473c-6.606-1.22-12.805-1.717-19.504-1.402l-2.072.066c-5.696.361-10.094 2.332-15.178 4.809q-2.624 1.188-5.254 2.36l-8.076 3.636-6.67 3.004v-7l2.351-.41c7.945-1.583 14.315-4.133 21.36-7.969 10.43-5.141 21.837-5.327 32.496-.789"/><path fill="#6c6c6b" d="M358.722 301.594c1.875.813 1.875.813 3.875 2.813.463 7.304.463 7.304-2 11-3.04.293-3.04.293-6.625.187l-3.602-.082-2.773-.105-.375 2.312c-.625 2.688-.625 2.688-2.625 5.688l-5-1c0-4.147.477-5.312 2.5-8.75l1.406-2.422 1.094-1.828h8l-.25-2.313c.25-2.687.25-2.687 2-4.562 2.25-1.125 2.25-1.125 4.375-.938"/><path fill="#d0f9fc" d="m305.597 237.407 2 1h2l3 1-1.801 1.031c-4.84 2.83-9.372 5.807-13.824 9.219-8.605 6.288-16.802 6.7-27.375 5.75-3.571-.909-6.693-2.393-10-4a677 677 0 0 0-6.102-2.687q-2.1-.917-4.19-1.85c-7.46-3.315-13.399-4.748-21.583-4.588l-2.664.027c-2.154.024-4.308.06-6.461.098 1-2 1-2 4-3 12.435-1.015 23.106 1.915 34.011 7.559l3.176 1.628 2.918 1.543c3.044 1.336 5.602 1.878 8.895 2.27l2.972.379c11.719.696 19.244-4.978 27.84-12.379 1.072-.99 2.139-1.986 3.188-3"/><path fill="#d4f9fc" d="m268.597 168.407 1.687 2.187 2.313 2.813 2.062 2.687c4.25 3.346 8.661 3.694 13.938 4.313v1h-12l1 2 2.312-.25c2.688.25 2.688.25 4.5 2.25l1.188 2-3.75-.75c-3.413-.4-3.413-.4-6.5 1.062-2.175 3.34-3.44 6.78-4.723 10.543l-1.027 2.145-3 1-.114-2.633c-.41-8.647-.41-8.647-3.886-16.367h4v-4h5v-4h-2z"/><path fill="#dcf7fa" d="M283.597 196.407v2l1.863-.105 2.45-.083 2.425-.105c2.262.293 2.262.293 4.117 1.492 1.145 1.801 1.145 1.801.145 6.801h-16l4 2-1.899.148-2.476.227c-.812.07-1.625.14-2.461.21-2.368.244-2.368.244-4.164 2.415-2.125-.375-2.125-.375-4-1 .26-3.73.762-5.69 3.062-8.688 3.744-2.947 8.023-5.312 12.938-5.312"/><path fill="#e9fbfc" d="m245.597 216.407 2 3c2.602.174 5.088.217 7.687.187 7.4.16 7.4.16 10.68 2.508 1.695 2.117 1.695 2.117 3.172 4.293 2.27 3.127 5.034 4.334 8.46 6.012l-2-3h5v5l-3 1-2-1v2l13-1c-3.498 3.5-3.498 3.5-7.5 3.687-5.942-.155-9.238-2.964-13.75-6.578-6.811-5.225-13.92-8.081-22.437-8.672l-3.574-.253-2.738-.184v-1l6-1z"/><path fill="#faedbd" d="M511.597 156.407c3.705 5.558 3.15 12.626 3.145 19.14l.01 2.335q.013 3.78.013 7.56l.01 5.296q.009 5.535.007 11.068c0 4.716.014 9.432.03 14.148q.016 5.463.013 10.926.002 2.607.014 5.216c.01 2.433.007 4.866 0 7.3l.018 2.152c-.042 6.667-1.71 12.203-4.823 18.046-1.558 2.936-2.77 5.55-3.437 8.813h-2l-1 3-1-4h3v-6h2l.403-1.771c.597-2.229.597-2.229 2.138-5.889 1.76-4.642 1.862-8.863 1.8-13.785v-2.753a1235 1235 0 0 0-.048-8.927q-.009-3.11-.013-6.22c-.012-5.44-.041-10.877-.074-16.316-.031-5.557-.045-11.114-.06-16.671q-.05-16.335-.146-32.668"/><path fill="#edb449" d="M526.597 141.407c4.044 6.066 4.281 10.815 4.227 17.93v3.018a2265 2265 0 0 1-.032 9.853l-.009 6.839c-.007 5.996-.027 11.991-.049 17.987-.02 6.12-.03 12.24-.04 18.36q-.033 18.006-.097 36.013l-2 1-.032-3.722q-.147-17.412-.308-34.823-.083-8.95-.158-17.9-.072-8.647-.155-17.293-.031-3.29-.056-6.58a4124 4124 0 0 0-.086-9.254l-.017-2.713c-.072-6.278-.54-12.471-1.188-18.715"/><path fill="#fae5ae" d="M279.597 334.407c7.715-.098 7.715-.098 10 0l1 1 3.5.437 3.5.563c1.202 2.405 1.1 3.95 1.062 6.625l-.027 2.477-.035 1.898h-2v-7h-4v8h-13z"/><path fill="#fae6ad" d="M455.034 337.22c2.563.187 2.563.187 4.563 2.187v4h-6l1 2 5-1-2 4c-4.75.125-4.75.125-7-1v1h-11l-1-5-1 4h-3v-9h17c1-1 1-1 3.437-1.188"/><path fill="#e6bd65" d="M328.597 337.407c1.812 2.062 1.812 2.062 3 4l1-3h3c-1.218 4.685-2.696 8.705-5 13h-3v-2h2l-3-10-2 4h-5v2h6c.625 1.875.625 1.875 1 4-2 2-2 2-5 2.25-3-.25-3-.25-5-2.25-.27-2.688-.088-5.291 0-8h-3v6h-3v-10q3.092-.293 6.187-.563l3.48-.316c3.052-.11 5.419.005 8.333.879"/><path fill="#ebab39" d="M511.597 154.407c3.278 2.186 3.443 2.342 4.168 5.934 1.43 8.289 1.14 16.745 1.132 25.128l.013 5.526q.012 5.76.002 11.518c-.005 4.928.012 9.855.035 14.782.014 3.794.015 7.587.012 11.38q0 2.728.016 5.455c.012 2.53.006 5.06-.006 7.59l.023 2.282c-.021 2.08-.021 2.08-.395 5.405l-3 2 .013-3.101q.06-14.541.09-29.082.014-7.474.048-14.948.031-7.226.038-14.452.006-2.743.022-5.486c.058-10.196-.204-19.894-2.211-29.931"/><path fill="#fae7af" d="M510.597 334.407h4v5h3v-5c3.312-.313 3.312-.313 7 0 2.623 2.792 2.968 4.702 3.375 8.5-.397 3.7-1.028 5.63-3.375 8.5h-3v-3h-3v-6h-5v5h-3z"/><path fill="#6c6c6b" d="M231.597 302.407c2.535 2.535 2.354 3.602 2.437 7.125-.069 5.825-1.842 9.394-5.437 13.875l-5-1c0-4.277.706-5.56 3-9l-4-1c-.326-3.578-.43-5.395 1.687-8.375 2.735-1.922 4.04-2.142 7.313-1.625"/><path fill="#6c6c6a" d="M384.597 302.157c3 .25 3 .25 5 2.25.125 2.625.125 2.625 0 5h-2v-2c-2.473.344-2.473.344-5 1l-1 2 5 1v3h-8l1 11h-6a731 731 0 0 1-.125-6.875l-.07-3.867c.195-3.258.195-3.258 2.195-5.258h3l.375-2.375c.902-3.792 1.724-4.55 5.625-4.875"/><path fill="#6e6e6d" d="M287.597 303.407c.08 1.624.139 3.25.187 4.875l.106 2.742-.293 2.383c-3.204 2.136-4.02 2.231-7.688 2.125l-2.449-.055-1.863-.07-.938 2.875c-1.062 3.125-1.062 3.125-2.062 5.125-2.438-.375-2.438-.375-5-1l-1-2c1.215-2.602 1.215-2.602 2.937-5.625l1.715-3.04 1.348-2.335h10l-1-5c2-1 2-1 6-1"/><path fill="#676768" d="M228.597 271.407c2 2 2 2 2.187 4.562-.187 2.438-.187 2.438-1.187 3.438-2.979.032-5.945-.069-8.922-.16-3.174.165-5.264.71-8.078 2.16-1.344 2.017-1.344 2.017-2 4l-3-1 .062-2.25c.059-2.68.059-2.68-.687-4.875l-.375-1.875 2-3c1.937.312 1.937.312 4 1l1 3c4.299-1.27 4.299-1.27 8.062-3.625 2.486-1.764 3.952-1.768 6.938-1.375"/><path fill="#636361" d="M206.597 304.407h6c.25 7.625.25 7.625-2 11-2.063.34-2.063.34-4.57.293l-2.715-.03-2.84-.076-2.864-.04a624 624 0 0 1-7.011-.147l1-7 16 1z"/><path fill="#e3b557" d="m504.16 334.344 3.437.063 1 3h-6v2l6 1v7c-6.625 1.125-6.625 1.125-10 0a81 81 0 0 0-4.688-.063l-4.312.063v-12h8v1h-6l1 3c2.015.733 2.015.733 4 1v2h-4v3h6v-2h3v2h5c-2.175-2.5-3.73-3.436-7-4q-.063-3 0-6c1-1 1-1 4.562-1.063"/><path fill="#fcf4cb" d="m484.698 333.274 2.054-.003q2.14 0 4.281.006c2.188.005 4.376 0 6.564-.007q2.082 0 4.164.004l3.826.004c3.01.129 3.01.129 5.01 1.129v13h3v2c-8.07.115-15.977-.1-24-1v-1c5.928-.775 11.114-1.104 17 0h2v-7l-6-1v-2h6l-1-2c-4.65-.27-4.65-.27-9 1v-2h-13l-1 7h-2l-2-6h-2l-2 6c-2.36-2.36-2.492-3.779-3-7 3.709-1.172 7.23-1.13 11.101-1.133"/><path fill="#6c6c6e" d="M308.597 268.407h3v8l3.687-1.125c3.744-.958 5.855-.82 9.313 1.125v-2l2.25.562c2.7.43 4.196.29 6.75-.562v2h2v-3h3v6h-29c-.968-3.873-1.077-7.036-1-11"/><path fill="#81817f" d="m400.784 305.782 1.813.625v2h-2v6c-2.349 1.174-3.738 1.115-6.352 1.098l-2.578-.01-2.695-.026-2.719-.013q-3.329-.018-6.656-.049v6h-1v-7h8l-1-3c-2.015-.733-2.015-.733-4-1l1-3h5v2h2l1-2 2.312.125c3.357-.156 4.611-2.31 7.875-1.75"/><path fill="#7ec2ce" d="m246.597 244.407 1.927.895a592 592 0 0 1 8.96 4.236c6.493 3.145 11.83 5.144 19.175 5.056l3.598-.019c2.9-.146 5.52-.502 8.34-1.168l-1 2c-12.183 4.06-23.873-.028-35-5v-2c-15.64-4.55-27.985-5.195-43.578.004-3.422.996-3.422.996-5.422-.004a324 324 0 0 1 9-4l2.039-.934c9.808-3.957 22.432-3.523 31.96.934"/><path fill="#27b6dd" d="m377.597 212.407 5 1 .297 1.906.453 2.594.422 2.531c1.098 3.938 2.908 7.373 4.828 10.969l1.984.012c3.006.034 6.01.104 9.016.175l3.12.018c6.943.2 11.427 1.422 16.88 5.795l-1 2-1.591-.862c-7.088-3.531-13.153-3.625-20.944-3.45-6.56-.057-6.56-.057-9.154-1.864-2.778-3.128-4.166-6.496-5.124-10.512l-.707-2.824c-.48-2.488-.48-2.488-.48-5.488h-2l.07 2.3.055 3.012.07 2.989c-.195 2.699-.195 2.699-2.195 5.699q-.04-3.437-.063-6.875l-.035-3.867c.098-3.258.098-3.258 1.098-5.258"/><path fill="#787876" d="M213.597 295.407h6v20l-6 1z"/><path fill="#38b5d6" d="m232.597 233.407-6 2 14 1v1l2.562.75c3.822 1.39 6.956 3.161 10.438 5.25l-1 2-11-4v-2a593 593 0 0 0-9.938-.25l-2.806-.102c-5.933-.083-10.068.702-15.286 3.583-2.401.937-3.582.617-5.97-.231q3.558-1.946 7.125-3.875l2.015-1.105c10.954-5.907 10.954-5.907 15.86-4.02"/><path fill="#c0f3f8" d="M254.597 205.407h4c2.455 5.123 3.503 9.339 4 15h-15l-1-5c2.644-1.322 4.677-1.097 7.625-1.063l3.039.028 2.336.035-2-5-5 1z"/><path fill="#36bcde" d="m464.566 220.13 2.468.011 2.533-.005q2.653-.002 5.306.01c2.713.011 5.425 0 8.138-.012q2.574 0 5.148.007l2.469-.012c5.739.048 5.739.048 7.969 2.278.404 3.046.252 4.57-1.313 7.238l-1.687 2.074-1.688 2.114-1.312 1.574-1-3a318 318 0 0 1 5-6v-3h-38c-.74 7.492-.74 7.492 2 11l-4-2a365 365 0 0 1-.125-4.875l-.07-2.742c.422-5.154 3.814-4.625 8.164-4.66"/><path fill="#e3b04d" d="M194.597 334.407h4l1 8h2v-7h3l-2 11-4 1-1-7h-2l-1 7h-4c-1.138-4.266-2-7.565-2-12h3v3l2-1z"/><path fill="#717170" d="M289.597 296.407h6v19h-6z"/><path fill="#757575" d="M261.597 296.407c2.375.25 2.375.25 5 1 2.098 2.898 2 4.284 2 8q-2.938.04-5.875.062l-3.305.036c-2.82-.098-2.82-.098-4.82-1.098-2.44 1.926-4.801 3.8-7 6 .297-3.468.988-4.985 3.187-7.75 3.106-2.485 4.879-3.075 8.813-3.25l2 1z"/><path fill="#808183" d="M205.597 270.407v4l-2 1 .687 2.312c.313 2.688.313 2.688-.625 4.5-3.378 1.946-6.202 1.494-10.062 1.188-2-2-2-2-2.188-5 .188-3 .188-3 1.188-5h3v6h5v-2h-2c.78-4.524 2.181-7 7-7"/><path fill="#20b8e1" d="M237.597 230.407c12.001-.612 20.84.23 32 5 5.725 2.121 12.145 3.752 17.976 1.102 1.826-1.177 1.826-1.177 4.024-3.102-.063 2.25-.063 2.25-1 5-3.978 3.085-6.403 4.377-11.438 3.75l-3.562-.75v-2l-2.875-.813c-4.723-1.347-9.424-2.768-14.125-4.187v-2l-21-1z"/><path fill="#ecc370" d="M270.597 334.407h3q.04 3.22.062 6.437l.035 3.622c-.097 2.941-.097 2.941-1.097 3.941q-3.5.062-7 0c-1.627-3.253-1.115-6.392-1-10 1-1 1-1 3.562-1.063l2.438.063z"/><path fill="#7b7c7d" d="M285.597 266.407h4v3h-4zm-1 3 4 1v2l4 2v4c-4.12 1.292-7.669 2.263-12 2l-2 5-3-1 .937-2.313a111 111 0 0 0 2.063-5.687l1.933-.148 2.504-.227c.824-.07 1.648-.14 2.496-.21l2.067-.415 1-2h-4z"/><path fill="#e3a837" d="M205.597 152.407c1.316 3.671.63 6.07-.406 9.768-1.874 7.659-2.071 15.11-2.106 22.939l-.054 4.383c-.047 3.8-.078 7.599-.104 11.398-.03 3.895-.076 7.79-.121 11.686a5885 5885 0 0 0-.21 22.826h-1q-.034-13.261-.051-26.523-.007-6.159-.024-12.318-.015-5.952-.02-11.905-.002-2.262-.01-4.524c-.076-22.093-.076-22.093 4.106-27.73"/><path fill="#32bbdf" d="M342.41 174.032c3.19.068 3.96.196 6.562 2.25 2.432 4.678 4.215 10.144 3.168 15.434l-.543 1.691c-2.351-3.526-2.382-5.73-2.657-9.844-.236-2.447-.236-2.447-2.343-5.156-1.978-.363-1.978-.363-4.125-.188l-3.875.188-2 7h-2l-.114 1.863-.199 2.45-.176 2.425c-.593 2.625-1.47 3.57-3.511 5.262.69-7.738 2.722-22.48 11.812-23.375"/><path fill="#21b7de" d="M474.597 256.407h2c-1.263 3.515-2.689 6.126-5.063 9-2.226 2.741-4.293 5.496-6.187 8.473l-1.164 1.798a144 144 0 0 0-2.213 3.563c-1.065 1.639-1.065 1.639-3.373 4.166-3.098.59-3.098.59-6 0-1.68-1.531-1.68-1.531-2.875-3.5l-1.242-1.969-.883-1.531c1.875.312 1.875.312 4 1l2 3c2.584.25 2.584.25 5 0v-5l2-1 2 1v-4l2-1 1-3h2l1-5h3v-5l3 1z"/><path fill="#5edff4" d="m249.91 227.782 2.1.13c3.305.235 6.393.632 9.587 1.495h3c2.48 1.531 2.48 1.531 5.187 3.5l2.73 1.969 2.083 1.531c-3.94 1.313-5.204.296-8.938-1.375-4.847-2.15-8.909-3.677-14.215-3.906l-2.353-.114-2.432-.105c-9.6-.418-9.6-.418-14.062-1.5v-1c5.875-.944 11.397-1 17.312-.625"/><path fill="#b7e7ea" d="m305.597 237.407 2 1h2l3 1-1.801 1.031c-4.867 2.846-9.414 5.843-13.887 9.281-4.24 3.162-7.023 4.688-12.312 4.688v-2c1.956-1.297 3.968-2.512 6-3.688 5.526-3.266 10.368-6.834 15-11.312"/><path fill="#666765" d="M364.597 296.407h5v19h-5z"/><path fill="#686867" d="M335.597 296.407h5v19h-5z"/><path fill="#8c8c8d" d="M272.597 267.407h4v12c-4.83 1.207-8.09.728-13 0l2-1c.652-2.025.652-2.025 1-4v2h2v-4h4z"/><path fill="#21b2db" d="M338.597 210.407h2c-.553 7.046-1.418 17.67-6.779 22.653-2.563 1.554-4.02 1.728-6.995 1.753l-2.75.067-2.851.027c-8.706.051-8.706.051-16.625 3.5v-2c5.193-4.65 10.113-4.65 16.875-4.75l2.953-.09q3.584-.105 7.172-.16l2-5h2z"/><path fill="#06bbed" d="m261.597 183.407 2 1-1 5c-5.75-.875-5.75-.875-8-2v3h-6l-1-5c4.614-3.721 8.505-3.166 14-2"/><path fill="#e5b04c" d="m411.597 334.407 3 1v5h4v-6h3v13h-3v-5h-5v5h-3q-.04-2.969-.063-5.938l-.035-3.34c.098-2.722.098-2.722 1.098-3.722"/><path fill="#33bde0" d="M379.562 173.813c3.305.965 4.225 2.699 6.035 5.594 1.175 3.176 2.007 6.4 2.812 9.687l.694 2.627c1.631 6.411 1.631 6.411.494 8.686-2-5.625-2-5.625-2-9h-3l-3-13h-4v-2h-5l-.149 2.152-.226 2.785-.211 2.778-.414 2.285-2 1c.087-1.605.195-3.21.312-4.813l.176-2.707c1.134-5.498 4.24-5.832 9.477-6.074"/><path fill="#6e6e6e" d="m263.597 308.407 5 1c-.535 5.348-2.467 9.358-5 14l-5-1c0-4.164.612-5.664 2.5-9.25l1.406-2.703c.36-.676.722-1.351 1.094-2.047"/><path fill="#e9e9e7" d="m437.597 297.407-2 5 4 1v-7h1v8h-7l1 5c-1.666.043-3.334.04-5 0-1.58-1.579-1.246-3.194-1.313-5.375.055-4.3.055-4.3 2-6.75 2.849-1.078 4.436-.754 7.313.125"/><path fill="#e2ae49" d="m345.16 334.344 3.437.063 1 3h-6v2l2.937.437c3.063.563 3.063.563 4.063 1.563.25 2.437.25 2.437 0 5-3.85 2.567-5.586 1.833-10 1l-1-4h3l1 2h3l1-3-2.938-.438c-3.062-.562-3.062-.562-4.062-1.562-.125-2.5-.125-2.5 0-5 1-1 1-1 4.562-1.063"/><path fill="#e7ba5f" d="M279.597 334.407h10v3h-6v2h4v3h-5v3h6v2h-9z"/><path fill="#deb156" d="M388.597 337.407h7v5h-2v-3h-3l-1 6h6c.625 1.875.625 1.875 1 4-2 2-2 2-5 2.187-3-.187-3-.187-5-1.187q.212-2.688.437-5.375l.246-3.023c.317-2.602.317-2.602 1.317-4.602"/><path fill="#fdf4d1" d="M469.597 336.407h2l2 11h4l1-5h2l1 5 3 1-2.485.148-3.265.227-3.235.21c-2.817.388-4.598.972-7.015 2.415-1.108-4.429-1.224-8.46-1-13z"/><path fill="#e7e7e6" d="M340.597 296.407h1l1 6 6-1c0 4 0 4-1 6h5v2l-3.813.062c-2.204.168-2.204.168-4.187.938-1.69 2.29-2.19 4.214-3 7h-1z"/><path fill="#7d7e7e" d="M295.597 274.407h3v6h6v-6h3c.195 6.055.195 6.055 0 8-2.426 2.425-3.172 2.296-6.5 2.312l-2.407.051-2.093-.363c-2.294-3.441-2.263-4.968-2-9z"/><path fill="#ecac32" d="M491.597 197.407h2v5l4 2 1-7 2 1c-.99 6.063-3.245 8.627-7.93 12.52-1.998 1.428-3.775 2.602-6.07 3.48l-3-1 3.808-4.492c1.28-1.514 1.28-1.514 2.192-3.508h2z"/><path fill="#04bcf1" d="M279.597 210.032c3.318.063 4.059.414 7 2.375.25 3.062.25 3.062 0 6-1 1-1 1-3.563 1.062l-2.437-.062-1-3h-2v-2h-5c1.766-3.533 3.19-4.305 7-4.375"/><path fill="#29bbe5" d="M259.597 244.407v3c5.52 2.238 10.246 3.246 16.187 3.562l2.272.131q2.77.158 5.54.307v-2c3.436-2.29 4.986-2.178 9-2-3.17 3.504-6.281 5.795-11.05 6.363-11.036-.172-18.237-2.148-27.95-7.363 3.75-2 3.75-2 6-2"/><path fill="#eec672" d="M250.597 337.407c1 1 1 1 1.097 3.066l-.035 2.496-.027 2.504-.035 1.934c-3.375.625-3.375.625-7 1l-2-2c.25-2.063.25-2.063 1-4l2-1-2-1v-2c2.484-1.242 4.252-1.14 7-1"/><path fill="#eccb7a" d="M427.534 338.22c3.063.187 3.063.187 5.063 2.187.368 2.87.375 4.408-1.188 6.875-1.812 1.125-1.812 1.125-4.437.937-2.375-.812-2.375-.812-3.375-2.812-.125-3.063-.125-3.063 0-6 1-1 1-1 3.937-1.188"/><path fill="#ddb157" d="M302.597 337.407c3.125.375 3.125.375 6 1l1 5h-6v2l6-1-1 3c-2.875.625-2.875.625-6 1-2-2-2-2-2.25-5.5.25-3.5.25-3.5 2.25-5.5"/><path fill="#e9ba5c" d="M455.097 337.157c2.5.25 2.5.25 4.5 2.25v4h-6l1 2 5-1-2 4c-2.375.125-2.375.125-5 0-2-2-2-2-2.25-5.5.288-4.035.598-5.335 4.75-5.75"/><path fill="#91f0f9" d="M237.597 229.407v2l-2.79.629c-15.135 3.667-15.135 3.667-27.913 12.086-1.297 1.285-1.297 1.285-4.297 1.285 1.4-3.503 2.694-4.702 6.105-6.254l2.483-1.15 2.6-1.159 2.54-1.17a672 672 0 0 1 7.272-3.267c.672-.31 1.343-.62 2.036-.938 4.192-1.894 7.355-2.344 11.964-2.062"/><path fill="#17b3dd" d="M396.597 221.407q6.938-.185 13.88-.275 2.36-.038 4.719-.102c2.264-.061 4.527-.09 6.791-.111l2.125-.078c2.001-.002 2.001-.002 5.485.566 2.475 2.53 2.475 2.53 4 5l-2 1-1.058-1.468c-2.904-2.29-5.358-1.97-9.017-2.044l-2.072-.054c-2.18-.054-4.36-.088-6.54-.122q-2.22-.05-4.44-.103c-3.624-.085-7.249-.152-10.873-.209z"/><path fill="#2db8dc" d="m288.66 199.157 2.66-.016c2.277.266 2.277.266 4.277 2.266-.375 2.625-.375 2.625-1 5h-5l-1-2h-9c1.64-4.923 4.315-5.278 9.062-5.25"/><path fill="#faecb7" d="M229.597 338.407h8q-.463 2.22-.938 4.437l-.527 2.497c-.535 2.066-.535 2.066-1.535 3.066q-3.5.062-7 0l2-1v-2h-5v-2h6z"/><path fill="#e2ae47" d="M510.597 335.407h3v5h5v-5h2v12h-2v-5h-5v5h-3z"/><path fill="#ebbe65" d="M375.097 337.157c2.5.25 2.5.25 4.5 2.25v4h-6v3l5-1v2c-2.875.625-2.875.625-6 1-2-2-2-2-2.25-5.5.288-4.035.598-5.335 4.75-5.75"/><path fill="#eaaf3f" d="M485.597 291.407v17h4l1-3 2 2-4.492 3.613c-1.761 1.51-1.761 1.51-3.508 4.387h-2a888 888 0 0 1-.188-10.313l-.076-2.958-.03-2.842c-.015-.864-.03-1.728-.047-2.619.408-2.718 1.237-3.572 3.34-5.268"/><path fill="#1cb2dd" d="m244.206 223.997 2.14.035 2.094-.035c5.057.028 8.702.977 13.157 3.41l1 3-13-2v-1h-14c3.265-3.266 4.192-3.385 8.61-3.41"/><path fill="#e1ab42" d="M434.597 338.407h14v9h-2v-7h-4v7h-2v-7h-4v7h-2z"/><path fill="#727271" d="m191.597 308.407 16 1v1l-3.375.375c-3.656.272-3.656.272-5.625 2.625l12 1v1h-20z"/><path fill="#31bbe1" d="M374.597 235.407h1c.13 6.424.174 12.633-1.969 18.777-1.08 3.373-1.656 6.595-2.156 10.098l-.508 3.492-.367 2.633h-1q-.04-3.468-.063-6.938l-.035-3.902c.098-3.16.098-3.16 1.098-4.16.285-3.036.448-6.073.62-9.117.38-2.883.38-2.883 2.38-5.883a75 75 0 0 0 1-5"/><path fill="#abedf8" d="M367.597 179.407h3c-.804 7.693-1.839 15.344-2.938 23l-.513 3.754-.514 3.558-.457 3.239-.578 2.449-2 1c-.055-1.75-.093-3.5-.125-5.25l-.07-2.953c.195-2.797.195-2.797 1.167-4.647 1.21-2.53 1.433-4.563 1.66-7.353l.254-2.969c.08-1.016.158-2.031.239-3.078l.261-3.125q.318-3.812.614-7.625"/><path fill="#fef7d3" d="m200.597 114.407 3 1-2.063 2.562c-6.15 8.622-10.407 19.197-12.937 29.438h-1c-.235-4.82.548-8.463 2-13h2l.437-2.25c.465-2.27.981-4.508 1.563-6.75h2l.375-2.313c.625-2.687.625-2.687 2.625-5.687h2z"/><path fill="#eac46b" d="M222.597 338.407h7l1 5h-6v2h5v2l-6 1c-2.567-3.85-1.833-5.586-1-10"/><path fill="#d7f9fc" d="M340.597 210.407h2c2.428 7.429 2.428 7.429 1 11l-3-3 .062 2.437c-.062 2.563-.062 2.563-1.062 3.563a236 236 0 0 0-1 7l-5 2 1.023-3c2.242-6.619 4.444-13.173 5.977-20"/><path fill="#fbf3ce" d="m394.597 343.407 5 1v5h-2v2h3l2-7c1.135 2.787 1.086 3.794-.094 6.625-1.906 2.375-1.906 2.375-4.824 2.863l-3.27-.176-3.293-.136-2.52-.176v-3h6c.935-3.01 1.045-3.867 0-7"/><path fill="#fdf3c7" d="M492.597 337.407h6l1 3c3.503 1.716 3.503 1.716 7 3v2h-5v-2h-3v2h-6v-3h4v-2h-4z"/><path fill="#deb258" d="M471.222 334.032c2.375.375 2.375.375 3.375 1.375.14 2.67.042 5.324 0 8h2v3h-2c-2.035-3.73-3-5.67-3-10l-3 2c-.27 4.194-.342 7.975 1 12h-2c-2.34-3.656-2.375-6.732-2-11 1.961-4.852 1.961-4.852 5.625-5.375"/><path fill="#fdf5d0" d="M353.597 338.407h-3l1.5 2.687c1.443 3.189 1.801 4.895 1.5 8.313h-2v2l4-1v3h-5v-5l-3-1 2-1v-5l-6-2v-2c4.077-.927 6.422-1.34 10 1"/><path fill="#f5dd9a" d="M447.597 336.407v2c-4.63 1.016-8.345.838-13 0v9l2 1-6-1 1-7-6-2v-1c7.355-.708 14.61-1.147 22-1"/><path fill="#c0c0bf" d="M334.597 295.407h6v1h-5v19l3 1h-4l-1-2h-3l1-1c.232-1.515.412-3.038.562-4.563l.254-2.503.184-1.934h-5v-1h6z"/><path fill="#24b8e1" d="M441.597 238.407c2.965 2.796 5.246 5.332 7.375 8.812 2.038 2.92 2.34 3.126 6.062 3.938 4.551-.958 6.269-2.536 9.563-5.75-.313 2.375-.313 2.375-1 5-3.198 2.132-4.288 2.32-8 2.375l-2.625.086c-2.375-.461-2.375-.461-4-2.422l-1.375-2.039-3-1v-2h-2z"/><path fill="#13b5e3" d="m223.597 235.407 17 1v1l2.562.75c3.822 1.39 6.956 3.161 10.438 5.25l-1 2-11-4v-2l-18-2z"/><path fill="#c5c6c6" d="M308.597 267.407h5v2h8c-1.46 4.622-1.46 4.622-3.875 6.312-2.125.688-2.125.688-6.125.688v-8z"/><path fill="#e2b55a" d="M206.597 338.407h7v9h-7l-1-5 6-1v-2l-6 1z"/><path fill="#fdf1be" d="M306.597 337.407h4v10h3v-6h3l.683 6.055c.23 2.019.23 2.019 1.317 3.945h-3v-3h-9l3-4-6 1v-2h6c-.574-2.867-.862-3.861-3-6"/><path fill="#828281" d="M358.66 301.532c1.937.875 1.937.875 3.25 2.75.687 2.125.687 2.125-.313 5.125-3.375.125-3.375.125-7 0l-2-2c.187-2 .187-2 1-4 3-2 3-2 5.062-1.875"/><path fill="#39bdde" d="M299.597 156.407c2.582 2.582 2.298 3.727 2.312 7.312-.098 4.426-.292 7.265-3.312 10.688-4.117 3.842-6.916 6.144-12.625 6.062l-2.477-.027-1.898-.035v-1l12-2v-3h3v-3h2c1-3.31 1.103-6.3 1.062-9.75l-.027-2.984z"/><path fill="#f7dc96" d="M310.597 337.407h10l-2 2c-.458 1.972-.458 1.972-.625 4.125l-.375 3.875h-1v-6h-3v6h-3z"/><path fill="#6b6b68" d="m406.284 308.72 2.313 1.687v2l2 1c-2 2-2 2-3.946 2.195l-6.054-.195v-2l-3-1h3v-4c3-1 3-1 5.687.312"/><path fill="#08bcec" d="M263.597 189.407h2q.252 3.125.5 6.25l.281 3.516c.163 2.407.219 4.821.219 7.234l-6 1 .437-1.977c1.015-4.777 1.685-9.118 1.563-14.023z"/><path fill="#32bbe0" d="M287.655 147.903c4.832.828 8.23 3.425 11.942 6.504l-1 3-3-1 1-2-2.938-.938c-3.062-1.062-3.062-1.062-4.062-2.062a153 153 0 0 0-6.563-.063l-3.629.028-2.808.035c3.165-3.93 6.277-3.6 11.058-3.504"/><path fill="#e9b64b" d="M200.597 118.407c1 3 1 3-.11 5.453l-1.64 2.797c-3.086 5.428-5.706 10.565-7.313 16.625l-.937 3.125-2 1c2.043-10.623 5.992-19.988 12-29"/><path fill="#e0b55d" d="M350.597 338.407h4v4h2l1-4 2 1q-.676 2.44-1.375 4.875l-.774 2.742c-.851 2.383-.851 2.383-2.851 4.383h-3v-2h2z"/><path fill="#818180" d="M211.597 289.407h11c-1 4-1 4-2 5a92 92 0 0 1-5.063.062l-2.785-.027-2.152-.035z"/><path fill="#29b7df" d="M352.597 250.407c2.715 2.533 3.442 3.988 4 7.687.821 4.742 2.186 8.861 4 13.313l7 1-1 2c-2.75.312-2.75.312-6 0-4.519-4.176-5.196-9.018-6.25-14.813l-.524-2.677q-.632-3.251-1.226-6.51"/><path fill="#3fbbdb" d="M254.597 214.407c3.375 1.5 3.375 1.5 6 3v2c-1.826-.03-1.826-.03-3.688-.063-3.232-.005-6.162.275-9.312 1.063l-1-5c2.831-1.416 4.85-1.242 8-1"/><path fill="#04bcf2" d="m283.41 188.844 1.187 1.563-1 2h-3v4h-6c.875-5.75.875-5.75 2-8 4.374-1.496 4.374-1.496 6.812.437"/><path fill="#e9fdfd" d="M267.597 187.407c2.062.437 2.062.437 4 1a416 416 0 0 1-.375 4.812l-.211 2.708c-.414 2.48-.414 2.48-2.414 5.48h-2q-.04-3.219-.063-6.438l-.035-3.62c.098-2.942.098-2.942 1.098-3.942"/><path fill="#33b9dc" d="M258.597 180.407c2.937 1.5 2.937 1.5 5 3-2.975 1.488-5.5.58-8.711.059-2.657-.068-4.037.589-6.29 1.941v4l6 1v2c-2.874.125-2.874.125-6 0-2-2-2-2-2.437-4.875.438-3.125.438-3.125 2.5-5.5 3.668-2.029 5.797-2.143 9.938-1.625"/><path fill="#fbf1c9" d="M250.597 336.407v1l-7 1v2h5c-3 2-3 2-5 3l1 5-4-1 1-8h-3v2l-2-1 1-2h-5v-1q2.812-.255 5.625-.5l3.164-.281c3.082-.21 6.122-.256 9.21-.219"/><path fill="#3cbddd" d="M282.597 185.407c2.312 1.187 2.312 1.187 4 3 .25 2.687.25 2.687 0 5l-2 1-2-6-2 1c-2.125-.438-2.125-.438-4-1v2l-2 1c-.904 1.883-.904 1.883-1.625 4.062l-.79 2.223-.585 1.715-2-1c5.733-14.272 5.733-14.272 13-13"/><path fill="#e9af3c" d="m361.597 35.407 2 3-3.375-.25c-4.48 0-7.817 1.32-11.883 3.094-4.804 2.025-9.784 3.554-14.742 5.156v-2h3v-2l3.125-.813c3.531-1.001 6.603-2.516 9.875-4.187 4.13-1.635 7.546-2.506 12-2"/><path fill="#dfb255" d="M253.597 338.407h8v9h-2v-7h-3v7h-3z"/><path fill="#868687" d="M339.597 267.407h4v12l-4 1z"/><path fill="#bef5fd" d="m333.597 233.407-1 3-25 1c3.255-3.255 3.548-3.38 7.816-3.512l2.815-.107 2.931-.069 2.944-.103c3.164-.108 6.327-.209 9.494-.209"/><path fill="#deac48" d="M397.597 338.407h2l1 3 2-3h3c-1.418 4.472-3.113 8.711-5 13h-3v-2h2l-1-3.25c-1-3.75-1-3.75-1-7.75"/><path fill="#707172" d="m207.597 273.407 4 1 .25 1.875c.562 2.31.562 2.31 2.812 3.375l1.938.75-1.875.25c-2.31.563-2.31.563-3.375 2.812l-.75 1.938-3-1 .062-2.25c.043-2.682.043-2.682-.625-4.938-.437-1.812-.437-1.812.563-3.812"/><path fill="#deb258" d="M326.597 338.407h3l2 3 1-3h3c-1.218 4.685-2.696 8.705-5 13h-3v-2h2z"/><path fill="#81817f" d="M464.597 299.407c3.77.41 5.8.867 9 3l-1 3h-9a100 100 0 0 1 0-5z"/><path fill="#616162" d="M252.597 269.407h1v7l7-2v2h4l1-2v4c-4.395.857-8.526 1.09-13 1z"/><path fill="#656567" d="M308.597 268.407h3v8l2.875-.125c3.125.125 3.125.125 5.125 2.125-3.215 1.607-6.436 1.057-10 1-1.176-3.674-1.074-7.17-1-11"/><path fill="#9b9b9b" d="M250.597 268.407h4c.25 7.625.25 7.625-2 11l3.25-.625c3.75-.375 3.75-.375 7.75 1.625h-14z"/><path fill="#e9b95a" d="M462.597 197.407h1l.078 1.941c.401 6.118 1.493 9.972 4.922 15.059-5.255-.412-8.236-1.235-12-5l-1-3c3 1 3 1 4 3l3 1z"/><path fill="#03bcf0" d="m263.597 210.407 6 2c.625 2.312.625 2.312 1 5l-2 3h-4z"/><path fill="#f7fefe" d="M256.597 208.407c1.5 1.312 1.5 1.312 3 3v3l-12 1-1-5c.957-.09.957-.09 1.933-.184l2.504-.254c.824-.08 1.648-.162 2.496-.246 2.053-.105 2.053-.105 3.067-1.316"/><path fill="#28b4da" d="m269.597 217.407 2 1 .437 2.75c.935 5.4 3.62 8.58 7.563 12.25-4.365-.51-6.534-1.929-9.75-4.875l-2.36-2.117c-1.89-2.008-1.89-2.008-2.89-5.008 2 0 2 0 3.625 1.5l1.375 1.5z"/><path fill="#fbebc1" d="M502.597 185.407h1v16l-3 1 1 4-6 4-2-1 2.312-2.625c5.545-6.785 6.285-12.792 6.688-21.375"/><path fill="#ecb33d" d="M508.597 261.407c1.614 4.035.544 7.07-1 11-4.103 4-4.103 4-7 4v2l-2-1q1.426-2.257 2.875-4.5l1.617-2.531 1.508-1.969h2l.437-2.375c.563-2.625.563-2.625 1.563-4.625"/><path fill="#eaae38" d="M482.597 184.407h1v10h2v-2l7 1-2 2h-3l-1.875 1c-2.523 1.187-4.37 1.153-7.125 1l.93-1.703c1.1-2.36 1.67-4.502 2.195-7.047l.508-2.422c.12-.603.242-1.206.367-1.828"/><path fill="#fcebbb" d="M509.597 340.407h1v7h3v2c-8.07.115-15.977-.1-24-1v-1c5.928-.775 11.114-1.104 17 0h2l-.063-2.938c.063-3.062.063-3.062 1.063-4.062"/><path fill="#fbeab6" d="m488.597 193.407 3 2c.293 2.383.293 2.383.187 5.125l-.082 2.758-.105 2.117h-2v-9l-3 3c-2.262.074-2.262.074-4.688-.313l-2.449-.363-1.863-.324 1-3v2q2.22-.714 4.437-1.438l2.496-.808c2.029-.576 2.029-.576 3.067-1.754"/><path fill="#e6b452" d="m479.16 141.22 2.378.019c2.059.168 2.059.168 4.059 1.168v2l-1.938 1.312c-2.562 2.096-2.715 3.471-3.062 6.688h-2c-.083-3.044.024-5.072 1-8l-8-1c3.157-2.105 3.954-2.253 7.562-2.188"/><path fill="#eebc5b" d="M336.597 26.407c-2 3-2 3-4.164 3.512l-2.461.175c-1.226.1-1.226.1-2.477.2l-1.898.113v3c-6.965 2.277-6.965 2.277-11 1l1.715-.586 2.222-.789 2.215-.773c2.035-.705 2.035-.705 2.848-2.852 2.433-1.105 2.433-1.105 5.437-2.188l2.996-1.105c2.567-.707 2.567-.707 4.567.293"/><path fill="#fae8ab" d="M325.597 338.407c2 1 2 1 3.125 3.25.88 2.766 1.04 4.87.875 7.75l-4 1v-4l-6-1v-2l5-1z"/><path fill="#737374" d="M205.597 270.407v4l-2 1 1 5-4 1 1-4h-3c.78-4.524 2.181-7 7-7"/><path fill="#fcf1ca" d="M512.597 248.407c.845 2.4 1.11 3.654.328 6.113l-1.078 2.2-1.125 2.359-1.125 2.328a345 345 0 0 0-1.75 4.062l-1.25 2.938h-2l-1 3-1-4h3v-6h2l.37-1.703c.682-2.487 1.623-4.702 2.692-7.047l1.098-2.422z"/><path fill="#fbf0c8" d="M292.597 340.407h4c.187 3.375.187 3.375 0 7-3.737 2.491-5.745 2.207-10.188 2.125l-3.855-.055-2.957-.07v-1h13z"/><path fill="#f3d88f" d="m393.597 336.407 6 1-2 1 1 6-4-1v2h-5l1-6h3v3h2v-5z"/><path fill="#e4be72" d="M522.597 334.407c3 1 3 1 4.187 2.625 1.516 4.43 1.42 8.078-.562 12.312l-1.625 2.063h-2l.492-1.684c.553-2.525.64-4.795.633-7.379l.008-2.597c-.04-2.496-.04-2.496-1.133-5.34"/><path fill="#dead4a" d="M290.597 338.407h8v9h-2v-7h-4v7h-2z"/><path fill="#dcac49" d="M360.597 338.407h8v9h-2v-7h-4v7h-2z"/><path fill="#fdf6dd" d="M464.597 333.407h9v1l-2.938.812-3.062 1.188c-1.548 4.644-1.496 9.325 0 14h-2l-1-3-2-1z"/><path fill="#cbf6fb" d="M496.597 228.407c.644 1.766.644 1.766 1 4-.926 1.922-.926 1.922-2.313 3.75l-1.363 1.86-1.324 1.39h-2l-.813 2.937-1.187 3.063-3 1v2l-2-1 2.082-2.887 2.73-3.8 1.37-1.897c2.432-3.392 4.733-6.793 6.818-10.416"/><path fill="#34b9e0" d="M338.597 210.407h2c-.564 7.184-2.055 14.4-5 21-2.137 1.383-2.137 1.383-4 2l2-7h2z"/><path fill="#24b6d9" d="m271.16 180.344 2.437.063c.625 2.375.625 2.375 1 5l-2 2c-2.625-.375-2.625-.375-5-1a100 100 0 0 1 0-5c1-1 1-1 3.562-1.063"/><path fill="#e3b95d" d="m322.66 345.344 2.937.063c.625 1.875.625 1.875 1 4-2 2-2 2-5.125 2.125l-2.875-.125a100 100 0 0 1 0-5c1-1 1-1 4.062-1.063"/><path fill="#676767" d="M285.597 266.407h4v3h-4zm-1 3 4 1v2l4 2v3l-5-1 1-3h-4z"/><path fill="#4ac3e2" d="M310.597 218.407v1l-3.875.25c-2.179.209-2.179.209-4.125.75-1.59 1.92-1.59 1.92-2 4h-2l-.25 1.687c-.976 3.01-2.702 4.935-4.75 7.313l-2-1c9.115-14.22 9.115-14.22 19-14"/><path fill="#fdf6d5" d="M364.597 40.407c4.302.642 8.392 1.577 12.562 2.812l3.317.958c3.288 1.296 5.491 2.894 8.12 5.23-2.374.125-2.374.125-5 0l-2-2a83 83 0 0 0-5.25-1.438c-4.286-1.104-7.909-2.382-11.75-4.562z"/><path fill="#7d7d7e" d="M322.597 318.407h9v4c-7.75 1.125-7.75 1.125-10 0z"/><path fill="#f3cd7c" d="M463.597 150.407h1l1 15-7 1c-1.513 1.936-1.513 1.936-2 4l-4-2v-2c4.188-1.971 5.998-2 11-2z"/><path fill="#fdf3cd" d="M503.597 136.407c5.561 4.894 7.379 12.86 8 20-2.768-1.384-2.917-2.89-4-5.75l-1-2.61-1-2.64-1.125-2.578c-.875-2.422-.875-2.422-.875-6.422"/><path fill="#e8b042" d="m435.597 52.407 14 7v2l2.312.812c2.562 1.132 3.885 2.1 5.688 4.188-4.194-.671-7.404-2.856-11-5v-2l-1.563-.25c-3.482-1.071-6.31-2.885-9.437-4.75z"/><path fill="#8b8b8c" d="M226.16 271.094c2.437.313 2.437.313 4.437 2.313.125 2.625.125 2.625 0 5l-2-2h-6l-2-2c1.81-2.288 2.607-2.952 5.562-3.313"/><path fill="#06bbef" d="M248.597 201.407h8l1 2h-5l-1 6-4-1z"/><path fill="#ecb447" d="M205.597 152.407c.986 3.11.968 5.164.222 8.328l-.556 2.422-.604 2.5-.592 2.547c-.482 2.07-.975 4.137-1.47 6.203h-1c.087-2.73.194-5.458.312-8.188l.069-2.33c.218-4.625.756-7.653 3.619-11.482"/><path fill="#efb64f" d="M527.597 252.407h1c-.608 6.689-1.977 12.953-5 19h-2l-1 2v-5h3v-5h2l-.125-3.25c.113-3.407.337-4.957 2.125-7.75"/><path fill="#47c2e1" d="M268.597 159.407h1l.332 2.266.48 2.984.457 2.953c.77 2.95 1.67 4.574 3.73 6.797l2 .5c2.759.69 3.501 2.176 5 4.5-3.158-.075-5.3-.375-7.699-2.52-3.743-4.305-5.447-7.348-5.363-13.168l.028-2.449z"/><path fill="#ebad30" d="m500.597 294.407 4 1q-2.465 2.505-4.938 5l-2.777 2.812c-2.285 2.188-2.285 2.188-3.285 2.188v-5l1.937-.313 2.063-.687 1-3h2z"/><path fill="#39bee0" d="M352.597 195.407c2.33 3.496 3.191 6.92 4.187 10.937l.576 2.17c.929 3.696 1.358 6.259.237 9.893-5.376-15.483-5.376-15.483-5-23"/><path fill="#edb447" d="m211.597 104.407 1 2a603 603 0 0 1-3.813 6l-2.144 3.375-2.043 2.625h-3c2.005-5.849 5.605-9.762 10-14"/><path fill="#ecb84f" d="M279.597 52.407c2 1 2 1 3 3-13.518 7-13.518 7-19 7q2.844-1.78 5.695-3.55a243 243 0 0 0 4.547-2.93l2.133-1.395 1.96-1.305z"/><path fill="#fefbe2" d="m214.597 345.407 3 2c2.968.46 2.968.46 6.187.625l3.293.227 2.52.148v1c-3.938.058-7.875.094-11.813.125l-3.392.05-3.252.02-3 .032c-2.543-.227-2.543-.227-5.543-2.227 2.722-1.361 4.183-.704 7.125-.063l2.758.59 2.117.473z"/><path fill="#dbaf54" d="M246.597 338.407h5v9c-3.375.625-3.375.625-7 1l-2-2v-3h2v3l4-1 1-6z"/><path fill="#fdefc3" d="M377.597 336.407v1l-6 2c-.27 4.65-.27 4.65 1 9h-6l2-1-1-10c3.473-1.158 6.36-1.069 10-1"/><path fill="#fdf3cf" d="M472.597 100.407c3.892 2.167 7.037 4.674 10.312 7.687l2.676 2.45 2.012 1.863-2 1c-3.762-1.254-5.272-3.142-8-6l-2.813-2.688c-2.187-2.312-2.187-2.312-2.187-4.312"/><path fill="#fdf2c9" d="M390.597 49.407c4.738 1.443 8.988 3.372 13.375 5.625l1.941.984q2.344 1.192 4.684 2.391c-3.937 1.312-6.125.243-10-1v-2l-1.688-.375c-2.574-.696-4.911-1.457-7.312-2.625z"/><path fill="#f9e7af" d="M368.597 20.407h8v2h5v2l5 1v2c-6.108-1.765-12.075-3.696-18-6z"/><path fill="#faeec5" d="M478.597 342.407h2l1 5 3 1-2.485.148-3.265.227-3.235.21c-2.817.388-4.598.972-7.015 2.415 1.133-3.4 2.125-4.053 5-6v2h4z"/><path fill="#e0b355" d="M216.597 335.407h3c.562 1.937.562 1.937 1 4l-1 1c-.192 3.632-.192 3.632 1 7h-4q-.29-2.437-.563-4.875l-.316-2.742c-.121-2.383-.121-2.383.879-4.383"/><path fill="#e6ac3e" d="M188.597 335.407h2l2 6h2v6h-4c-1.138-4.266-2-7.565-2-12"/><path fill="#777778" d="M268.597 273.407h3v6c-2.313.625-2.313.625-5 1l-3-2h2l1-4v2h2z"/><path fill="#2ebcde" d="M419.597 239.407c3 1 3 1 4 3 2.016 1.134 2.016 1.134 4 2v5h4v5l-3-2v-2h-2l-.813-2.938-1.187-3.062-3-1c-1.188-2.063-1.188-2.063-2-4"/><path fill="#3dc1e5" d="M326.597 208.407h1c.125 7.75.125 7.75-1 10h-2v3h-12v-1h11l.937-4.875c.938-4.875.938-4.875 2.063-7.125"/><path fill="#c6f4f7" d="M280.245 203.075c2.798.018 5.562.119 8.352.332l1 3h-11l4 2h-8c1.12-3.445 1.957-4.87 5.648-5.332"/><path fill="#fbeabc" d="m293.597 65.407 2 1c-3.225 3.74-6.462 5.169-11 7l-2.813 1.75-2.187 1.25-2-1c10.8-7.347 10.8-7.347 16-10"/><path fill="#fef9d7" d="M487.597 337.407h1l1 10 8 1v1q-2.125.079-4.25.125l-2.39.07c-2.36-.195-2.36-.195-6.36-2.195z"/><path fill="#6a6b6c" d="M304.597 274.407h3v8h-8v-2h5z"/><path fill="#fcedbf" d="m218.597 126.407 1 2c-.707 1.77-.707 1.77-1.813 3.812-1.265 2.384-2.328 4.578-3.25 7.125l-.937 2.063-3 1c1.747-6.265 3.97-10.882 8-16"/><path fill="#fbf3d1" d="M332.597 345.407h1c.2 3.716.152 4.772-2 8l-13-1v-1c1.436-.196 2.874-.381 4.312-.563l2.426-.316c2.262-.121 2.262-.121 5.262.879z"/><path fill="#0cb8e9" d="M368.597 265.407h1q.061 3 0 6c-1 1-1 1-2.848 1.098l-6.152-.098-2-4 5 1v2h4l-.625-1.875-.375-2.125z"/><path fill="#28b7dd" d="m272.597 194.407 4 5-2.25 1.25c-2.652 1.687-4.617 3.459-6.75 5.75l-2-5 6-2z"/><path fill="#c1f2fa" d="M367.597 179.407h3c-.515 5.853-1.454 11.33-3 17h-1z"/><path fill="#c3f3f8" d="M266.597 178.407h5l1 2-4 1v6l-3 1-3-6h4z"/><path fill="#e9b042" d="M387.597 28.407c6.86 1.56 12.79 4.758 19 8-2.8 1.113-3.902 1.035-6.797.004-.975-.476-1.95-.951-2.953-1.442l-2.985-1.433-2.265-1.129v-2h-4z"/><path fill="#e5b454" d="M232.597 338.407h5l-2 9h-3z"/><path fill="#deae4a" d="M222.597 338.407h7l1 4h-6l3-1v-2l-3 1-1 5h-2z"/><path fill="#e7ba60" d="m504.16 334.344 3.437.063 1 3h-6l-1 4h-2q-.063-3 0-6c1-1 1-1 4.562-1.063"/><path fill="#ececeb" d="M319.597 315.407h8l-1 3 2 1-2.875-.125c-3.228-.225-3.228-.225-5.125 2.125-1-1-1-1-1.063-3.563z"/><path fill="#676766" d="M273.597 315.407c.125 5.75.125 5.75-1 8l-5-1v-3c4.457-4 4.457-4 6-4"/><path fill="#faecc0" d="m518.597 277.407 1 2a136 136 0 0 1-3 7h-2l-1 3c-2.063.687-2.063.687-4 1a2768 2768 0 0 1 2.812-4.25l1.582-2.39a143 143 0 0 1 4.606-6.36"/><path fill="#2db7dc" d="M485.597 241.407h2c-1.622 3.585-3.793 6.59-6.125 9.75l-2.196 2.984-1.68 2.266-1-2 2.313-3.188c2.048-2.86 3.904-5.779 5.688-8.812z"/><path fill="#1ab8e1" d="M213.597 235.407c-1 3-1 3-3.938 4.687-3.062 1.313-3.062 1.313-5.062 1.313v-5c6.75-1 6.75-1 9-1"/><path fill="#b3f5fd" d="M378.597 214.407h2c2.428 7.429 2.428 7.429 1 11l-3-1z"/><path fill="#fcf5d6" d="M481.597 210.407h5l-2 3 6-1v2h-3v2h-6z"/><path fill="#cef6fb" d="m250.198 179.212 3.024.07 3.039.055 2.336.07v1l-1.899.367-2.476.508-2.461.492c-2.351.5-2.351.5-4.164 2.633a90 90 0 0 0-1 6h-1a293 293 0 0 1-.125-4.375l-.07-2.46c.306-3.402 1.485-4.112 4.796-4.36"/><path fill="#faecbc" d="M258.597 89.407v3l-2.563 1.125c-3.984 2.173-7.104 4.827-10.437 7.875l-2-1q2.403-2.19 4.812-4.375l2.707-2.46c4.773-4.165 4.773-4.165 7.48-4.165"/><path fill="#fbedbd" d="m310.597 56.407 2 1c-2.544 3.816-4.718 4.523-9 6-2.438-.313-2.438-.313-4-1 3.577-2.21 7.155-4.291 11-6"/><path fill="#f2c267" d="M331.597 48.407c-4.642 2.533-8.652 4.465-14 5l1-3h3v-2c7.75-1.125 7.75-1.125 10 0"/><path fill="#f4d988" d="m214.597 338.407 2 1c.125 3.375.125 3.375 0 7-2 2-2 2-3.946 2.195l-6.054-.195v-1h7l-.063-3.938a59 59 0 0 1 .063-4.062z"/><path fill="#ecca77" d="M194.597 334.407h4l-1 3v-2h-2v4l2 1h-2l-1 2-3-1-1-6 1 3 2-1z"/><path fill="#e3b149" d="M388.597 337.407h7v5h-2v-3h-3v4h-2c-1.125-3.75-1.125-3.75 0-6"/><path fill="#fbebb5" d="M353.597 338.407h-3l1.125 2.312.875 2.688-2 3-1-5-6-2v-2c4.077-.927 6.422-1.34 10 1"/><path fill="#fef2c8" d="m410.597 333.407 8 1v6h-4l-1-5h-3z"/><path fill="#8f8f8d" d="m229.222 302.282 2.375.125-2 3c.308 2.153.308 2.153 1 4h-5c-.625-2.375-.625-2.375-1-5 2-2 2-2 4.625-2.125"/><path fill="#6d6f6e" d="M232.597 276.407h3l-3 9-3-1c.547-3.375 1.055-5.082 3-8"/><path fill="#686868" d="M279.597 276.407q2.405-.079 4.812-.125l2.707-.07c2.48.195 2.48.195 5.48 2.195-4.052.982-7.838 1.082-12 1z"/><path fill="#c2f3f9" d="M471.597 263.407c.625 1.812.625 1.812 1 4l-2 3h-2l-.813 2.437-1.187 2.563-3 1c1.468-3.107 3.2-5.905 5.125-8.75l1.633-2.422z"/><path fill="#32bcdf" d="M259.597 244.407v3l2.187.875 7.813 3.125c-2.951 1.253-3.974 1.01-7.016-.215l-3.234-1.723-3.266-1.714-2.484-1.348c3.75-2 3.75-2 6-2"/><path fill="#c1f6fb" d="M340.597 210.407h2c2.428 7.429 2.428 7.429 1 11l-1-2-3-1z"/><path fill="#eab145" d="m457.597 170.407 3 1c-.348 8.137-.348 8.137-2.938 11.562-2.062 1.438-2.062 1.438-4.062 1.438a56.5 56.5 0 0 1 4-7c.079-2.332.088-4.668 0-7"/><path fill="#fbedbd" d="m394.597 343.407 5 1v5h-2v2l2 1-5-1 .562-2.313c.666-2.777.666-2.777-.562-5.687"/><path fill="#e3ab3b" d="m500.597 336.407 1 3 7 1v6h-2l-1-3-2.563-1.438c-.804-.515-1.609-1.03-2.437-1.562z"/><path fill="#929292" d="m261.597 296.407 5 1 1 4c-2.313.625-2.313.625-5 1l-3-2h2z"/><path fill="#a4eff7" d="m256.597 247.407 1.758.84c4.42 2.05 8.337 3.657 13.242 4.16-3 2-3 2-5.121 1.645-7.743-2.782-7.743-2.782-10.88-5.645z"/><path fill="#c3f3fa" d="M352.597 191.407c2.882 2.329 3.912 3.533 4.61 7.234.045 1.16.092 2.32.14 3.516l.172 3.547.078 2.703c-1.854-2.78-2.686-4.783-3.625-7.938l-.79-2.59c-.585-2.472-.585-2.472-.585-6.472"/><path fill="#faeeb9" d="M457.597 337.407h3v10h-3l2-3-5 2-1-3h6z"/><path fill="#f7df9f" d="M261.597 339.407h3l1 8-6 1 2-1z"/><path fill="#e3b047" d="M485.597 335.407h2l-1 9h-2v2h-2v-4h2z"/><path fill="#dfa536" d="M270.597 335.407h2v11l-3-1 .187-2.375-.187-2.625-3-2h4z"/><path fill="#0fb9ea" d="M236.597 225.407h17v3l-1.547-.496c-3.266-.671-6.372-.597-9.703-.567l-3.828.028-2.922.035z"/><path fill="#b5f3fa" d="m273.597 199.407 2 1a105 105 0 0 1-4 5h-2v4l3 1-4 1c-.875-2.063-.875-2.063-1-5 1.739-2.59 3.804-4.791 6-7"/><path fill="#eca929" d="M461.597 197.407h1v13l-4-1 2-1-.035-2.152-.028-2.786-.035-2.777c.098-2.285.098-2.285 1.098-3.285"/><path fill="#bbf1f7" d="M274.597 181.407h1c.687 2.812.687 2.812 1 6-1.313 1.5-1.313 1.5-3 3-1.2 3.1-1.2 3.1-2 6-.981-3.053-.981-4.947 0-8l-2-1 1.937-.75c2.25-1.066 2.25-1.066 2.813-3.375z"/><path fill="#f9e4aa" d="M475.597 176.407c3.395 1.405 5.306 2.698 7 6 .245 3.017.174 5.98 0 9h-1l-.586-6.152-.414-1.848-2-1v-2h-3z"/><path fill="#faf1d0" d="M313.597 341.407h3l.683 6.055c.23 2.019.23 2.019 1.317 3.945h-3v-3h-2z"/><path fill="#fdf5cf" d="m524.597 334.407 4 1 1 11-3 2 .07-1.793c.104-4.545.067-8.066-2.07-12.207"/><path fill="#27b6e0" d="M436.597 261.407c2.25 0 2.25 0 5 1 1.761 2.49 3.083 5.09 4 8l-1 2q-2.005-2.465-4-4.938l-2.25-2.777c-1.75-2.285-1.75-2.285-1.75-3.285"/><path fill="#cff6fa" d="m265.597 224.407 5 5h-2v3l-4-2c0-3 0-3 1-6"/><path fill="#3dbae0" d="M247.597 201.407c1.231 2.463 1.071 4.28 1 7l4 1v2c-2.375.187-2.375.187-5 0-2.29-3.435-2.179-4.985-2-9z"/><path fill="#e9fdfc" d="M278.597 205.407h9l1 2h-2l-1 3-3-2a75 75 0 0 0-5-1z"/><path fill="#15b6e5" d="M263.597 189.407h2v10h-2l-1 3a888 888 0 0 1-.063-5.375l-.035-3.023c.098-2.602.098-2.602 1.098-4.602"/><path fill="#fcefbb" d="m497.597 338.407 1 7h-6v-3h4v-2l-4-1c3-1 3-1 5-1"/><path fill="#fef9d7" d="M283.597 337.407h6v7h-6l4-1v-4h-4z"/><path fill="#6b6b6b" d="M268.597 301.407v4h-8v-2l-2-1c6.625-1 6.625-1 10-1"/><path fill="#6d6d6f" d="M194.597 274.407v7h5v1q-3.5.061-7 0c-1-1-1-1-1.063-4.063l.063-2.937c2-1 2-1 3-1"/><path fill="#43bfe0" d="M241.597 239.407c5.076-.615 7.83 1.383 12 4l-1 2-11-4z"/><path fill="#56c4dd" d="M261.597 228.407c3.107 1.468 5.904 3.2 8.75 5.125l2.422 1.633 1.828 1.242c-3 1-3 1-5.188.062l-1.812-1.062v-2l-6-2z"/><path fill="#dafcfe" d="M237.597 224.407q-3.435 1.255-6.875 2.5l-1.973.723c-4.926 1.777-4.926 1.777-7.152 1.777v-2c2.76-1.84 4.297-2.483 7.437-3.188l2.309-.542c2.383-.285 3.985.001 6.254.73"/><path fill="#52c7e4" d="M333.597 182.407h1c.315 5.99-.318 9.636-3 15-1.316-3.659-.655-6.08.437-9.75l.871-2.984z"/><path fill="#fdf6d4" d="M232.597 81.407h5c-3.11 3.288-6.016 5.837-10 8v-3h2v-2h2z"/><path fill="#e1ae48" d="M381.597 338.407h5v2l-2 1c-.658 3.03-.658 3.03-1 6h-2z"/><path fill="#e7b140" d="m478.597 334.407 3 1v6h-4q-.063-3 0-6z"/><path fill="#efc571" d="m411.597 334.407 3 1-1 4h-1l-1 8h-1q-.04-2.969-.063-5.938l-.035-3.34c.098-2.722.098-2.722 1.098-3.722"/><path fill="#e9bc60" d="m345.16 334.344 3.437.063 1 3h-6l-1 2v-3l-2-1c1-1 1-1 4.562-1.063"/><path fill="#7c7d7b" d="m199.597 318.407 5 1v3h-2v2l-4-2z"/><path fill="#d8d8d7" d="M233.597 305.407c3 4 3 4 3.5 7.562l-.5 3.438-5 3z"/><path fill="#a6edf3" d="M294.597 247.407c-1.25 3.75-2.76 4.815-6 7h-4v-2c1.68-1.29 1.68-1.29 3.875-2.625l2.18-1.352c1.945-1.023 1.945-1.023 3.945-1.023"/><path fill="#d2fbfd" d="M288.597 236.407c-3.314 2.21-4.345 2.225-8.188 2.125l-2.73-.055-2.082-.07 1-2c8.103-1.461 8.103-1.461 12 0"/><path fill="#36b9da" d="m496.597 221.407 2 1c.353 4.197-.358 6.065-3 9.312l-1.688 2.114-1.312 1.574-1-3c1.266-1.494 2.537-2.985 3.851-4.438 1.617-2.198 1.537-3.921 1.149-6.562"/><path fill="#32bbe1" d="m274.597 151.407 2 1c-2.625 5.75-2.625 5.75-6 8l-1-3c1.404-2.264 3.196-4.02 5-6"/><path fill="#fbf0c8" d="m232.597 110.407 1 3c-1.313 1.5-1.313 1.5-3 3h-3v3l-3-1q1.432-1.724 2.875-3.438l1.617-1.933c1.508-1.629 1.508-1.629 3.508-2.629"/><path fill="#ebb043" d="M472.597 99.407h4v2h3l1 4h2l-1 3a1496 1496 0 0 1-4.5-3.938l-2.532-2.214-1.968-1.848z"/><path fill="#e2b456" d="M490.597 340.407h6v2h-4v4h5v1h-8l2-1z"/><path fill="#fef6ca" d="M256.597 340.407h3v8h-3z"/><path fill="#2cb6dc" d="M447.597 276.407c1.875.312 1.875.312 4 1l2 3c2.563.73 2.563.73 5 1v2c-2.688.437-2.688.437-6 0-2.048-2.111-3.535-4.459-5-7"/><path fill="#89898a" d="m207.597 273.407 4 1v3h-2v5l-2-1c-1.276-5.45-1.276-5.45 0-8"/><path fill="#d1f9fc" d="m245.597 216.407 2 3 3 2v2h-12v-1l6-1z"/><path fill="#c2f4fa" d="M272.597 216.407c2.437.25 2.437.25 5 1l2 3-3.375-.125c-3.669-.286-3.669-.286-5.625 2.125.875-4.875.875-4.875 2-6"/><path fill="#dbfdfe" d="M246.597 210.407h7l1 4-7 1z"/><path fill="#fef9de" d="M480.597 183.407h1v10l-4 2-1 3-1-4h3z"/><path fill="#fdf2ca" d="m481.597 146.407.312 1.625c.655 2.566.655 2.566 2.313 5.437 1.375 2.938 1.375 2.938.375 5.938-3.168-4.157-4.613-6.727-4-12z"/><path fill="#fdf4cf" d="M509.597 108.407h2v2h3c1.46 2.647 2 3.894 2 7l2 1h-3c-2.372-3.162-4.344-6.412-6-10"/><path fill="#eaaf3d" d="m233.597 106.407 3 1-2.813 2.312c-2.17 1.806-4.243 3.636-6.187 5.688-.188-2.375-.188-2.375 0-5 3-2 3-2 6-2z"/><path fill="#fceba6" d="M298.597 339.407h2l.437 3.375c.346 3.446.346 3.446 1.563 5.625h-6l2-1z"/><path fill="#d9ad54" d="m434.597 338.407 5 1-3 1v7h-2z"/><path fill="#ddac4b" d="M311.597 338.407h4l-2 9h-2z"/><path fill="#dbdbdb" d="m269.597 312.407 1 3c-1.813 3.187-1.813 3.187-4 6h-2c1.09-3.775 1.908-6.47 5-9"/><path fill="#6a6a68" d="m417.597 303.407 3 3-3 1 2 5-4-2c-.125-2.375-.125-2.375 0-5z"/><path fill="#757574" d="m344.597 301.407 5 1-2 4-4-1z"/><path fill="#747473" d="m432.597 296.407 5 1-1 4-4-1z"/><path fill="#dfdfdf" d="M203.597 269.407h3l1 10h-3l-2-5h3v-4z"/><path fill="#d9fafd" d="M251.597 223.407h8v2h3l1 3q-2.16-.68-4.313-1.375l-2.426-.773c-2.261-.852-2.261-.852-5.261-2.852"/><path fill="#fcf2d2" d="m466.597 208.407 1 2h2v5l-9-1 1-2 6 1-2-4z"/><path fill="#ebb34b" d="M503.597 134.407c3 1 3 1 4.687 3.75 1.252 3.1 1.602 4.967 1.313 8.25-2.748-3.402-6-7.485-6-12"/><path fill="#e8cc81" d="M389.597 347.407h5l1 3c-1 1-1 1-4.063 1.062l-2.937-.062z"/><path fill="#e9a630" d="M195.597 335.407h2q.755 1.935 1.5 3.875l.843 2.18c.657 1.945.657 1.945.657 3.945h-2l-1-6h-2z"/><path fill="#737372" d="M355.597 294.407c2.062.437 2.062.437 4 1l-1 4-4-1c0-3 0-3 1-4"/><path fill="#e6b548" d="m497.597 278.407 1 2c-1.381 4.142-3.599 5.322-7 8l-2-1z"/><path fill="#d0f6fb" d="M477.597 255.407h1c.2 3.716.152 4.772-2 8l-4-1a698 698 0 0 1 2.437-3.5l1.371-1.969z"/><path fill="#1cb8df" d="M292.597 247.407c-2.353 2.724-4.625 3.814-8 5l-1-3c3.435-2.29 4.985-2.178 9-2"/><path fill="#c8f7fc" d="M347.597 233.407c2.108 3.162 2.338 4.507 2.625 8.187l.226 2.731.149 2.082c-2.246-1.774-2.951-2.584-3.293-5.48l.105-2.708.082-2.73z"/><path fill="#ebaa2e" d="M305.597 55.407c3.625-.188 3.625-.188 7 0-2.285 2.285-4.126 2.971-7.125 4.125l-2.758 1.07-2.117.805v-2l3-1z"/><path fill="#fcf0c6" d="m387.597 27.407 8 1 1 3h3v2c-4.036-1.59-8.018-3.282-12-5z"/><path fill="#e2a945" d="m317.597 340.407 3 1-1 9-3-1z"/><path fill="#faefc3" d="M464.597 339.407h1l2 11h-2l-1-3-2-1z"/><path fill="#fdefbd" d="m198.597 334.407 4 1-1 7h-2z"/><path fill="#747472" d="m238.597 303.407 5 1-2 7c-1.414-2.639-2.373-5.071-3-8"/><path fill="#7f7f7e" d="M206.597 304.407h6v8h-1v-6l-4 2z"/><path fill="#6c6d6f" d="m468.597 292.407 4 1-1 4-4-1z"/><path fill="#e1b55b" d="m488.597 207.407 1 3 2 1c-2.313 1.562-2.313 1.562-5 3l-3-1z"/><path fill="#e8ad37" d="M479.597 143.407h4l-3 9h-2c-.09-3.199.09-5.927 1-9"/><path fill="#eab548" d="m447.597 80.407 7 1 1 5a809 809 0 0 1-4-2.438l-2.25-1.37-1.75-1.192z"/><path fill="#e5bf74" d="m309.597 344.407-1 3-6 1-1-2c2.906-1.257 4.796-2 8-2"/><path fill="#f7da92" d="m218.597 340.407 3 1c1.187 3.062 1.187 3.062 2 6l-6 1 2-2-1-1a100 100 0 0 1 0-5"/><path fill="#dbaa4a" d="m427.66 338.344 2.937.063-1.938.625c-2.412 1.27-2.412 1.27-2.812 4.5l-.25 2.875-2-1q-.063-3 0-6c1-1 1-1 4.062-1.063"/><path fill="#fcf5d2" d="m332.597 336.407 4 1c.187 2.875.187 2.875 0 6l-3 2c.875-4.75.875-4.75 2-7h-3z"/><path fill="#fdeec7" d="M490.597 308.407c0 3.517-.825 4.371-3 7l-3-1c3.75-4.875 3.75-4.875 6-6"/><path fill="#33c0e0" d="M441.597 238.407c2.5 2.312 2.5 2.312 5 5v3l-4-1z"/><path fill="#fdf2cb" d="M526.597 139.407h3l1 10-2-1c-.633-2.066-.633-2.066-1.125-4.563l-.508-2.503z"/><path fill="#e7ad38" d="M463.597 70.407c3.578 1.652 6.748 3.783 10 6l-4 1v-2l-4-1v-2h-2z"/><path fill="#eab03f" d="M325.597 30.407v3c-6.965 2.277-6.965 2.277-11 1a875 875 0 0 1 4.375-2l2.46-1.125c2.165-.875 2.165-.875 4.165-.875"/><path fill="#e5bd69" d="M402.597 338.407h3l-2 6-4-1c1-2 1-2 3-5"/><path fill="#fcf0c6" d="m406.597 337.407-1 5-1-2 1-2h-3l-2 4-1-4c2.462-1.231 4.28-1.072 7-1"/><path fill="#6bc0d4" d="M269.597 227.407c4.832.414 6.826 2.464 10 6-4.833-.414-6.827-2.464-10-6"/><path fill="#24b2db" d="m246.597 186.407 2 3c3.065.733 3.065.733 6 1v2c-2.875.125-2.875.125-6 0l-2-2z"/><path fill="#fcf4d0" d="M475.597 180.407h1c.25 2.812.25 2.812 0 6-2 1.875-2 1.875-4 3l-2-1 1.937-2.313c2.205-2.57 2.205-2.57 3.063-5.687"/><path fill="#e9d38c" d="M319.597 347.407h4l1 4h-6z"/><path fill="#e1bd6f" d="m459.597 344.407-2 4h-5l-1-2c5.75-2 5.75-2 8-2"/><path fill="#e2c06d" d="M339.597 343.407h3l1 4 4 1-7-1z"/><path fill="#ddb568" d="M525.597 341.407h1c.25 6.625.25 6.625-2 10h-2z"/><path fill="#fcefb5" d="M267.597 340.407h3v5l-4-1z"/><path fill="#f5cb75" d="M303.597 339.407h3v2l3 2h-6l-1 2a100 100 0 0 1 0-5z"/><path fill="#fbeab9" d="M437.597 336.407h10v2l-6 1v-2z"/><path fill="#14b8e5" d="m459.597 274.407 2 1-1 5-5 1 3-1-.063-2.438c.063-2.562.063-2.562 1.063-3.562"/><path fill="#91d5d3" d="m208.597 240.407-1 4-5 1c2.258-5 2.258-5 6-5"/><path fill="#82e6f3" d="M230.597 229.407h7v2l-8 1z"/><path fill="#ebbd67" d="m458.597 166.407-2 4-4-2v-2c2.49-1.245 3.41-.777 6 0"/><path fill="#f2ac2d" d="m214.597 101.407 4 2-5 4-2-1z"/><path fill="#fbedc3" d="m272.597 78.407 2 1c-1.75 2.062-1.75 2.062-4 4-2.25-.25-2.25-.25-4-1z"/><path fill="#fcf2cc" d="M378.597 22.407h3v2l5 1v2c-3.438-.813-3.438-.813-7-2z"/><path fill="#f9e7a1" d="M343.597 342.407h4l-1 4-4-1z"/><path fill="#dcad52" d="M373.597 338.407h5l1 4h-6l3-1v-2z"/><path fill="#f2dc9d" d="M202.597 334.407h3c1.15 3.553 1.087 4.8-.438 8.312l-1.562 2.688c-1.468-3.815-.434-6.29 1-10z"/><path fill="#9e9e9c" d="M405.597 307.407c1.875.25 1.875.25 4 1 1.25 2.062 1.25 2.062 2 4h-3v-2h-3z"/><path fill="#626262" d="M465.597 300.407h4l-1 4h-4z"/><path fill="#636363" d="m281.597 296.407 4 1-1 3h-4z"/><path fill="#a4a4a4" d="M285.597 266.407h4v3h-4zm-1 3 4 2h-4z"/><path fill="#e9ad3b" d="M527.597 252.407h1c-.75 7.625-.75 7.625-3 11-.286-7.429-.286-7.429 2-11"/><path fill="#0db8ed" d="M261.597 246.407c3.242.35 4.615.562 6.812 3.062l1.188 1.938c-5.75-1.875-5.75-1.875-8-3z"/><path fill="#cef8fa" d="M210.597 244.407v2l-7 2v-3c2.462-1.231 4.28-1.072 7-1"/><path fill="#31bcdf" d="M409.597 234.407c5.415-.37 5.415-.37 8.375 1.5l1.625 1.5-1 2-9-4z"/><path fill="#3ab9d6" d="M254.597 225.407c3.687.498 5.605 1.1 8 4l-3 1z"/><path fill="#fcf5d4" d="M501.597 204.407c-1 3-1 3-3.438 4.75l-2.562 1.25-2-1c5.75-5 5.75-5 8-5"/><path fill="#2cb8df" d="M349.597 183.407c3.006 3.006 2.596 5.824 3 10-1.5-1.063-1.5-1.063-3-3-.188-3.688-.188-3.688 0-7"/><path fill="#fdf7d7" d="M208.597 102.407h5a250 250 0 0 1-4 6h-1z"/><path fill="#e7ad3c" d="m287.597 67.407 2 1a466 466 0 0 1-3.375 2.5l-1.899 1.406c-1.726 1.094-1.726 1.094-3.726 1.094v-3a136 136 0 0 1 7-3"/></svg>