<svg xmlns="http://www.w3.org/2000/svg" viewBox="0 0 168 48" role="img" aria-labelledby="title desc">
  <title id="title">WESH360</title>
  <desc id="desc">لوگوی وِش۳۶۰ با نماد قطره آب و متن برند</desc>
  <defs>
    <linearGradient id="drop" x1="0%" y1="0%" x2="0%" y2="100%">
      <stop offset="0%" stop-color="#0ea5e9" />
      <stop offset="100%" stop-color="#2563eb" />
    </linearGradient>
  </defs>
  <g fill="none" fill-rule="evenodd" stroke="none" stroke-width="1">
    <path d="M24 3c6.627 8.444 9.94 15.011 9.94 19.702C33.94 31.212 29.011 36 23.27 36 17.43 36 12.5 31.132 12.5 22.68 12.5 18.041 15.853 11.54 24 3Z" fill="url(#drop)" />
    <path d="M23.5 28.25c-2.07 0-3.75-1.68-3.75-3.75 0-2.07 1.68-3.75 3.75-3.75 2.07 0 3.75 1.68 3.75 3.75 0 2.07-1.68 3.75-3.75 3.75Z" fill="#f8fafc" />
    <path d="m47.2 34-6.3-20h4.36l4.02 13.81h.1L53.3 14h4.35l-6.3 20H47.2Zm20.22.3c-5.16 0-8.46-3.42-8.46-8.78 0-5.22 3.4-8.86 8.28-8.86 3.99 0 6.98 2.24 7.64 5.7h-3.96c-.52-1.38-1.92-2.26-3.67-2.26-2.46 0-4.03 1.9-4.03 5.32 0 3.48 1.63 5.43 4.2 5.43 1.99 0 3.34-1.03 3.83-2.68h4c-.82 3.88-3.86 6.13-7.83 6.13Zm23.08-.3-1.04-3.12H82.4L81.33 34h-4.06L84.3 14h4.43l7 20h-4.23Zm-6.66-6.27h4.73l-2.32-7.1h-.12l-2.29 7.1Zm30.91 6.27h-4.14l-4.61-7.36h-.07V34h-3.9V14h3.9v8.17h.07L139.43 14h4.4l-6.1 8.78 6.78 11.22Zm6.7-8.9c0-5.6 3.38-9.07 8.8-9.07 5.38 0 8.77 3.47 8.77 9.07 0 5.58-3.39 9.03-8.77 9.03-5.42 0-8.8-3.45-8.8-9.03Zm12.02 0c0-3.18-1.4-5.2-3.22-5.2s-3.26 2.02-3.26 5.2c0 3.16 1.44 5.16 3.26 5.16s3.22-2 3.22-5.16Z" fill="#0b2540" />
  </g>
</svg>
